<?xml version="1.0" encoding="UTF-8"?>
<svg xmlns="http://www.w3.org/2000/svg" version="1.1" viewBox="0 0 414 500">
  <!-- Generator: Adobe Illustrator 28.7.3, SVG Export Plug-In . SVG Version: 1.2.0 Build 164)  -->
  <g>
    <g id="Background_Complete">
      <path d="M282.61,217.54c.22-1.63-2.08-2.98-3.81-3.12-.83-.07-1.68.06-2.47-.21-1.7-.59-2.37-2.78-4.03-3.48-1.24-.52-2.66-.06-3.86.55-1.2.6-2.38,1.36-3.72,1.45-1.17.07-2.43-.36-3.45.21-.76.42-1.16,1.3-1.86,1.82-.68.51-1.58.61-2.43.66-.85.05-1.73.05-2.5.41-.77.35-1.41,1.17-1.25,2.01l29.38-.29Z" style="fill: #f5f5f5;"/>
      <g>
        <rect x="64.54" y="246.63" width="32.55" height="103.16" style="fill: #f5f5f5;"/>
        <rect x="80.81" y="246.63" width="16.28" height="102.88" style="fill: #ebebeb;"/>
        <rect x="68.25" y="236.5" width="11.49" height="10.13" style="fill: #f5f5f5;"/>
        <rect x="77.01" y="236.5" width="2.74" height="10.13" style="fill: #ebebeb;"/>
        <polyline points="61.82 246.63 61.82 246.04 98.04 246.04 98.04 246.63" style="fill: #e0e0e0;"/>
        <rect x="70.96" y="251.05" width="2.76" height="5.81" style="fill: #fafafa;"/>
        <path d="M80.81,259.14c0,.06-3.64.11-8.14.11s-8.14-.05-8.14-.11,3.64-.11,8.14-.11,8.14.05,8.14.11Z" style="fill: #e0e0e0;"/>
        <g>
          <rect x="87.38" y="251.05" width="2.76" height="5.81" style="fill: #e0e0e0;"/>
          <path d="M97.23,259.14c0,.06-3.64.11-8.14.11s-8.14-.05-8.14-.11,3.64-.11,8.14-.11,8.14.05,8.14.11Z" style="fill: #e0e0e0;"/>
        </g>
        <g>
          <rect x="87.38" y="262.58" width="2.76" height="5.81" style="fill: #e0e0e0;"/>
          <path d="M97.23,270.67c0,.06-3.64.11-8.14.11s-8.14-.05-8.14-.11,3.64-.11,8.14-.11,8.14.05,8.14.11Z" style="fill: #e0e0e0;"/>
        </g>
        <g>
          <rect x="87.38" y="274.46" width="2.76" height="5.81" style="fill: #e0e0e0;"/>
          <path d="M97.23,282.55c0,.06-3.64.11-8.14.11s-8.14-.05-8.14-.11,3.64-.11,8.14-.11,8.14.05,8.14.11Z" style="fill: #e0e0e0;"/>
        </g>
        <g>
          <rect x="87.38" y="286.35" width="2.76" height="5.81" style="fill: #e0e0e0;"/>
          <path d="M97.23,294.44c0,.06-3.64.11-8.14.11s-8.14-.05-8.14-.11,3.64-.11,8.14-.11,8.14.05,8.14.11Z" style="fill: #e0e0e0;"/>
        </g>
        <g>
          <rect x="87.38" y="297.89" width="2.76" height="5.81" style="fill: #e0e0e0;"/>
          <path d="M97.23,305.98c0,.06-3.64.11-8.14.11s-8.14-.05-8.14-.11,3.64-.11,8.14-.11,8.14.05,8.14.11Z" style="fill: #e0e0e0;"/>
        </g>
        <g>
          <rect x="87.38" y="309.48" width="2.76" height="5.81" style="fill: #e0e0e0;"/>
          <rect x="87.38" y="321.22" width="2.76" height="5.81" style="fill: #e0e0e0;"/>
          <path d="M97.23,317.57c0,.06-3.64.11-8.14.11s-8.14-.05-8.14-.11,3.64-.11,8.14-.11,8.14.05,8.14.11Z" style="fill: #e0e0e0;"/>
        </g>
        <rect x="70.96" y="262.76" width="2.76" height="5.81" style="fill: #fafafa;"/>
        <path d="M80.81,270.85c0,.06-3.64.11-8.14.11s-8.14-.05-8.14-.11,3.64-.11,8.14-.11,8.14.05,8.14.11Z" style="fill: #e0e0e0;"/>
        <rect x="70.96" y="274.47" width="2.76" height="5.81" style="fill: #fafafa;"/>
        <path d="M80.81,282.56c0,.06-3.64.11-8.14.11s-8.14-.05-8.14-.11,3.64-.11,8.14-.11,8.14.05,8.14.11Z" style="fill: #e0e0e0;"/>
        <rect x="70.96" y="286.18" width="2.76" height="5.81" style="fill: #fafafa;"/>
        <path d="M80.81,294.27c0,.06-3.64.11-8.14.11s-8.14-.05-8.14-.11,3.64-.11,8.14-.11,8.14.05,8.14.11Z" style="fill: #e0e0e0;"/>
        <rect x="70.96" y="297.89" width="2.76" height="5.81" style="fill: #fafafa;"/>
        <path d="M80.81,305.98c0,.06-3.64.11-8.14.11s-8.14-.05-8.14-.11,3.64-.11,8.14-.11,8.14.05,8.14.11Z" style="fill: #e0e0e0;"/>
        <rect x="70.96" y="309.6" width="2.76" height="5.81" style="fill: #fafafa;"/>
        <path d="M80.81,317.69c0,.06-3.64.11-8.14.11s-8.14-.05-8.14-.11,3.64-.11,8.14-.11,8.14.05,8.14.11Z" style="fill: #e0e0e0;"/>
        <rect x="70.96" y="321.31" width="2.76" height="5.81" style="fill: #fafafa;"/>
      </g>
      <g>
        <rect x="178.61" y="223.1" width="46.92" height="148.71" style="fill: #f5f5f5;"/>
        <rect x="202.08" y="223.1" width="23.46" height="148.3" style="fill: #ebebeb;"/>
        <rect x="183.97" y="208.5" width="16.57" height="14.6" style="fill: #f5f5f5;"/>
        <rect x="196.59" y="208.5" width="3.95" height="14.6" style="fill: #ebebeb;"/>
        <polyline points="174.7 223.1 174.7 222.25 226.91 222.25 226.91 223.1" style="fill: #e0e0e0;"/>
        <rect x="187.88" y="229.47" width="3.97" height="8.37" style="fill: #fafafa;"/>
        <path d="M202.08,241.13c0,.09-5.25.16-11.73.16s-11.73-.07-11.73-.16,5.25-.16,11.73-.16,11.73.07,11.73.16Z" style="fill: #e0e0e0;"/>
        <g>
          <rect x="211.54" y="229.47" width="3.97" height="8.37" style="fill: #e0e0e0;"/>
          <path d="M225.74,241.13c0,.09-5.25.16-11.73.16s-11.73-.07-11.73-.16,5.25-.16,11.73-.16,11.73.07,11.73.16Z" style="fill: #e0e0e0;"/>
        </g>
        <g>
          <rect x="211.54" y="246.1" width="3.97" height="8.37" style="fill: #e0e0e0;"/>
          <path d="M225.74,257.76c0,.09-5.25.16-11.73.16s-11.73-.07-11.73-.16,5.25-.16,11.73-.16,11.73.07,11.73.16Z" style="fill: #e0e0e0;"/>
        </g>
        <g>
          <rect x="211.54" y="263.22" width="3.97" height="8.37" style="fill: #e0e0e0;"/>
          <path d="M225.74,274.89c0,.09-5.25.16-11.73.16s-11.73-.07-11.73-.16,5.25-.16,11.73-.16,11.73.07,11.73.16Z" style="fill: #e0e0e0;"/>
        </g>
        <g>
          <rect x="211.54" y="280.35" width="3.97" height="8.37" style="fill: #e0e0e0;"/>
          <path d="M225.74,292.02c0,.09-5.25.16-11.73.16s-11.73-.07-11.73-.16,5.25-.16,11.73-.16,11.73.07,11.73.16Z" style="fill: #e0e0e0;"/>
        </g>
        <g>
          <rect x="211.54" y="296.99" width="3.97" height="8.37" style="fill: #e0e0e0;"/>
          <path d="M225.74,308.65c0,.09-5.25.16-11.73.16s-11.73-.07-11.73-.16,5.25-.16,11.73-.16,11.73.07,11.73.16Z" style="fill: #e0e0e0;"/>
        </g>
        <g>
          <rect x="211.54" y="313.7" width="3.97" height="8.37" style="fill: #e0e0e0;"/>
          <rect x="211.54" y="330.62" width="3.97" height="8.37" style="fill: #e0e0e0;"/>
          <path d="M225.74,325.36c0,.09-5.25.16-11.73.16s-11.73-.07-11.73-.16,5.25-.16,11.73-.16,11.73.07,11.73.16Z" style="fill: #e0e0e0;"/>
        </g>
        <rect x="187.88" y="246.35" width="3.97" height="8.37" style="fill: #fafafa;"/>
        <path d="M202.08,258.01c0,.09-5.25.16-11.73.16s-11.73-.07-11.73-.16,5.25-.16,11.73-.16,11.73.07,11.73.16Z" style="fill: #e0e0e0;"/>
        <rect x="187.88" y="263.23" width="3.97" height="8.37" style="fill: #fafafa;"/>
        <path d="M202.08,274.89c0,.09-5.25.16-11.73.16s-11.73-.07-11.73-.16,5.25-.16,11.73-.16,11.73.07,11.73.16Z" style="fill: #e0e0e0;"/>
        <rect x="187.88" y="280.11" width="3.97" height="8.37" style="fill: #fafafa;"/>
        <path d="M202.08,291.77c0,.09-5.25.16-11.73.16s-11.73-.07-11.73-.16,5.25-.16,11.73-.16,11.73.07,11.73.16Z" style="fill: #e0e0e0;"/>
        <rect x="187.88" y="296.99" width="3.97" height="8.37" style="fill: #fafafa;"/>
        <path d="M202.08,308.65c0,.09-5.25.16-11.73.16s-11.73-.07-11.73-.16,5.25-.16,11.73-.16,11.73.07,11.73.16Z" style="fill: #e0e0e0;"/>
        <rect x="187.88" y="313.87" width="3.97" height="8.37" style="fill: #fafafa;"/>
        <path d="M202.08,325.54c0,.09-5.25.16-11.73.16s-11.73-.07-11.73-.16,5.25-.16,11.73-.16,11.73.07,11.73.16Z" style="fill: #e0e0e0;"/>
        <rect x="187.88" y="330.76" width="3.97" height="8.37" style="fill: #fafafa;"/>
      </g>
      <g>
        <rect x="216.46" y="290.56" width="25.64" height="81.24" style="fill: #f5f5f5;"/>
        <rect x="229.28" y="290.56" width="12.82" height="81.02" style="fill: #ebebeb;"/>
        <rect x="219.39" y="282.58" width="9.05" height="7.98" style="fill: #f5f5f5;"/>
        <rect x="226.28" y="282.58" width="2.16" height="7.98" style="fill: #ebebeb;"/>
        <polyline points="214.32 290.56 214.32 290.09 242.85 290.09 242.85 290.56" style="fill: #e0e0e0;"/>
        <rect x="221.52" y="294.04" width="2.17" height="4.58" style="fill: #fafafa;"/>
        <path d="M229.28,300.41s-2.87.09-6.41.09-6.41-.04-6.41-.09,2.87-.09,6.41-.09,6.41.04,6.41.09Z" style="fill: #e0e0e0;"/>
        <g>
          <rect x="234.45" y="294.04" width="2.17" height="4.58" style="fill: #e0e0e0;"/>
          <path d="M242.21,300.41s-2.87.09-6.41.09-6.41-.04-6.41-.09,2.87-.09,6.41-.09,6.41.04,6.41.09Z" style="fill: #e0e0e0;"/>
        </g>
        <g>
          <rect x="234.45" y="303.12" width="2.17" height="4.58" style="fill: #e0e0e0;"/>
          <path d="M242.21,309.49s-2.87.09-6.41.09-6.41-.04-6.41-.09,2.87-.09,6.41-.09,6.41.04,6.41.09Z" style="fill: #e0e0e0;"/>
        </g>
        <g>
          <rect x="234.45" y="312.48" width="2.17" height="4.58" style="fill: #e0e0e0;"/>
          <path d="M242.21,318.85s-2.87.09-6.41.09-6.41-.04-6.41-.09,2.87-.09,6.41-.09,6.41.04,6.41.09Z" style="fill: #e0e0e0;"/>
        </g>
        <g>
          <rect x="234.45" y="321.84" width="2.17" height="4.58" style="fill: #e0e0e0;"/>
          <path d="M242.21,328.21s-2.87.09-6.41.09-6.41-.04-6.41-.09,2.87-.09,6.41-.09,6.41.04,6.41.09Z" style="fill: #e0e0e0;"/>
        </g>
        <g>
          <rect x="234.45" y="330.93" width="2.17" height="4.58" style="fill: #e0e0e0;"/>
          <path d="M242.21,337.3s-2.87.09-6.41.09-6.41-.04-6.41-.09,2.87-.09,6.41-.09,6.41.04,6.41.09Z" style="fill: #e0e0e0;"/>
        </g>
        <g>
          <rect x="234.45" y="340.06" width="2.17" height="4.58" style="fill: #e0e0e0;"/>
          <rect x="234.45" y="349.3" width="2.17" height="4.58" style="fill: #e0e0e0;"/>
          <path d="M242.21,346.43s-2.87.09-6.41.09-6.41-.04-6.41-.09,2.87-.09,6.41-.09,6.41.04,6.41.09Z" style="fill: #e0e0e0;"/>
        </g>
        <rect x="221.52" y="303.26" width="2.17" height="4.58" style="fill: #fafafa;"/>
        <path d="M229.28,309.63s-2.87.09-6.41.09-6.41-.04-6.41-.09,2.87-.09,6.41-.09,6.41.04,6.41.09Z" style="fill: #e0e0e0;"/>
        <rect x="221.52" y="312.48" width="2.17" height="4.58" style="fill: #fafafa;"/>
        <path d="M229.28,318.85s-2.87.09-6.41.09-6.41-.04-6.41-.09,2.87-.09,6.41-.09,6.41.04,6.41.09Z" style="fill: #e0e0e0;"/>
        <rect x="221.52" y="321.71" width="2.17" height="4.58" style="fill: #fafafa;"/>
        <path d="M229.28,328.08s-2.87.09-6.41.09-6.41-.04-6.41-.09,2.87-.09,6.41-.09,6.41.04,6.41.09Z" style="fill: #e0e0e0;"/>
        <rect x="221.52" y="330.93" width="2.17" height="4.58" style="fill: #fafafa;"/>
        <path d="M229.28,337.3s-2.87.09-6.41.09-6.41-.04-6.41-.09,2.87-.09,6.41-.09,6.41.04,6.41.09Z" style="fill: #e0e0e0;"/>
        <rect x="221.52" y="340.15" width="2.17" height="4.58" style="fill: #fafafa;"/>
        <path d="M229.28,346.52s-2.87.09-6.41.09-6.41-.04-6.41-.09,2.87-.09,6.41-.09,6.41.04,6.41.09Z" style="fill: #e0e0e0;"/>
        <rect x="221.52" y="349.37" width="2.17" height="4.58" style="fill: #fafafa;"/>
      </g>
      <g>
        <g>
          <rect x="85.93" y="319.42" width="27.6" height="52.38" style="fill: #e0e0e0;"/>
          <rect x="100.59" y="319.42" width="12.94" height="52.38" style="fill: #ebebeb;"/>
        </g>
        <g>
          <rect x="91.72" y="324.35" width="2.48" height="6.03" style="fill: #f5f5f5;"/>
          <rect x="91.72" y="347.95" width="2.48" height="6.03" style="fill: #f5f5f5;"/>
          <path d="M100.59,332.75c0,.05-3.28.09-7.33.09s-7.33-.04-7.33-.09,3.28-.09,7.33-.09,7.33.04,7.33.09Z" style="fill: #f5f5f5;"/>
        </g>
        <g>
          <rect x="91.72" y="336.24" width="2.48" height="6.03" style="fill: #f5f5f5;"/>
          <path d="M100.59,344.64c0,.05-3.28.09-7.33.09s-7.33-.04-7.33-.09,3.28-.09,7.33-.09,7.33.04,7.33.09Z" style="fill: #f5f5f5;"/>
        </g>
        <rect x="103.34" y="324.35" width="2.48" height="6.03" style="fill: #e0e0e0;"/>
        <rect x="108.72" y="324.35" width="2.48" height="6.03" style="fill: #e0e0e0;"/>
        <rect x="103.34" y="335.79" width="2.48" height="6.03" style="fill: #e0e0e0;"/>
        <rect x="108.72" y="335.79" width="2.48" height="6.03" style="fill: #e0e0e0;"/>
        <rect x="103.34" y="347.23" width="2.48" height="6.03" style="fill: #e0e0e0;"/>
        <rect x="108.72" y="347.23" width="2.48" height="6.03" style="fill: #e0e0e0;"/>
        <rect x="83.86" y="318.16" width="31.75" height="1.31" style="fill: #e0e0e0;"/>
        <path d="M113.73,319.59c0,.05-6.17.09-13.78.09s-13.78-.04-13.78-.09,6.17-.09,13.78-.09,13.78.04,13.78.09Z" style="fill: #ebebeb;"/>
      </g>
      <g>
        <polygon points="86.25 371.77 41.8 371.77 41.61 301.52 86.06 301.52 86.25 371.77" style="fill: #ebebeb;"/>
        <rect x="63.83" y="301.52" width="22.22" height="70.25" style="fill: #e0e0e0;"/>
        <rect x="46.68" y="287.69" width="15.7" height="13.83" style="fill: #ebebeb;"/>
        <rect x="58.64" y="287.69" width="3.74" height="13.83" style="fill: #e0e0e0;"/>
        <rect x="37.9" y="300.71" width="49.45" height=".81" style="fill: #e0e0e0;"/>
        <rect x="50.38" y="307.55" width="3.76" height="7.93" style="fill: #fff;"/>
        <path d="M63.83,318.6c0,.08-4.98.15-11.11.15s-11.11-.07-11.11-.15,4.97-.15,11.11-.15,11.11.07,11.11.15Z" style="fill: #e0e0e0;"/>
        <g>
          <rect x="72.8" y="307.55" width="3.76" height="7.93" style="fill: #f5f5f5;"/>
          <path d="M86.25,318.6c0,.08-4.98.15-11.11.15s-11.11-.07-11.11-.15,4.97-.15,11.11-.15,11.11.07,11.11.15Z" style="fill: #ebebeb;"/>
        </g>
        <g>
          <rect x="72.8" y="323.3" width="3.76" height="7.93" style="fill: #f5f5f5;"/>
          <path d="M86.25,334.35c0,.08-4.98.15-11.11.15s-11.11-.07-11.11-.15,4.97-.15,11.11-.15,11.11.07,11.11.15Z" style="fill: #ebebeb;"/>
        </g>
        <g>
          <rect x="72.8" y="339.53" width="3.76" height="7.93" style="fill: #f5f5f5;"/>
          <path d="M86.25,350.57c0,.08-4.98.15-11.11.15s-11.11-.07-11.11-.15,4.97-.15,11.11-.15,11.11.07,11.11.15Z" style="fill: #ebebeb;"/>
        </g>
        <g>
          <rect x="72.8" y="355.75" width="3.76" height="7.93" style="fill: #f5f5f5;"/>
          <path d="M86.25,366.8c0,.08-4.98.15-11.11.15s-11.11-.07-11.11-.15,4.97-.15,11.11-.15,11.11.07,11.11.15Z" style="fill: #ebebeb;"/>
        </g>
        <rect x="50.38" y="323.54" width="3.76" height="7.93" style="fill: #fff;"/>
        <path d="M63.83,334.59c0,.08-4.98.15-11.11.15s-11.11-.07-11.11-.15,4.97-.15,11.11-.15,11.11.07,11.11.15Z" style="fill: #e0e0e0;"/>
        <rect x="50.38" y="339.53" width="3.76" height="7.93" style="fill: #fff;"/>
        <path d="M63.83,350.58c0,.08-4.98.15-11.11.15s-11.11-.07-11.11-.15,4.97-.15,11.11-.15,11.11.07,11.11.15Z" style="fill: #e0e0e0;"/>
        <rect x="50.38" y="355.52" width="3.76" height="7.93" style="fill: #fff;"/>
        <path d="M63.83,366.57c0,.08-4.98.15-11.11.15s-11.11-.07-11.11-.15,4.97-.15,11.11-.15,11.11.07,11.11.15Z" style="fill: #e0e0e0;"/>
      </g>
      <path d="M296.95,262.99c.32-2.33-2.97-4.25-5.45-4.45-1.18-.1-2.41.09-3.53-.3-2.42-.84-3.39-3.97-5.76-4.97-1.77-.75-3.8-.08-5.52.78-1.71.86-3.41,1.95-5.32,2.07-1.67.11-3.47-.51-4.93.3-1.09.61-1.65,1.86-2.66,2.6-.98.72-2.26.87-3.47.94-1.21.07-2.47.08-3.58.58-1.11.51-2.02,1.68-1.79,2.87l41.99-.41Z" style="fill: #f5f5f5;"/>
      <g>
        <g>
          <g>
            <rect x="271.04" y="346.1" width="35.76" height="25.71" style="fill: #ebebeb;"/>
            <path d="M280.63,346.1c.05,0,0,5.43,0,5.43h-2.65v-5.43h2.65Z" style="fill: #f5f5f5;"/>
          </g>
          <rect x="288.92" y="346.1" width="17.88" height="25.71" transform="translate(595.72 717.9) rotate(180)" style="fill: #e0e0e0;"/>
        </g>
        <rect x="272.13" y="366.77" width="4.79" height="3.39" style="fill: #fff;"/>
        <rect x="277.8" y="366.77" width="2.39" height="3.39" style="fill: #fff;"/>
      </g>
      <g>
        <g>
          <g>
            <rect x="280.12" y="329.36" width="23.28" height="16.74" style="fill: #ebebeb;"/>
            <path d="M286.36,329.36s0,3.53,0,3.53h-1.72v-3.53h1.72Z" style="fill: #f5f5f5;"/>
          </g>
          <rect x="291.76" y="329.36" width="11.64" height="16.74" transform="translate(595.16 675.46) rotate(180)" style="fill: #e0e0e0;"/>
        </g>
        <rect x="280.83" y="342.82" width="3.12" height="2.21" style="fill: #fff;"/>
        <rect x="284.52" y="342.82" width="1.56" height="2.21" style="fill: #fff;"/>
      </g>
      <path d="M65.42,218.12c.18-1.32-1.68-2.41-3.09-2.52-.67-.05-1.36.05-2-.17-1.37-.48-1.92-2.25-3.26-2.82-1-.42-2.15-.05-3.12.44-.97.49-1.93,1.1-3.01,1.17-.94.06-1.97-.29-2.79.17-.61.34-.94,1.05-1.5,1.47-.55.41-1.28.5-1.97.53-.69.04-1.4.04-2.03.33-.63.29-1.14.95-1.01,1.63l23.78-.23Z" style="fill: #ebebeb;"/>
      <path d="M303.44,244.96c.18-1.29-1.64-2.35-3.01-2.46-.65-.05-1.33.05-1.95-.17-1.34-.47-1.87-2.2-3.18-2.75-.98-.41-2.1-.05-3.05.43-.95.48-1.88,1.08-2.94,1.14-.92.06-1.92-.28-2.72.17-.6.33-.91,1.03-1.47,1.43-.54.4-1.25.48-1.92.52-.67.04-1.37.04-1.98.32-.61.28-1.12.93-.99,1.59l23.19-.23Z" style="fill: #ebebeb;"/>
      <path d="M106.36,226.31c.33-2.41-3.08-4.4-5.64-4.61-1.22-.1-2.49.09-3.65-.31-2.51-.87-3.51-4.11-5.95-5.14-1.83-.77-3.93-.08-5.71.81-1.77.89-3.52,2.01-5.5,2.14-1.72.11-3.59-.53-5.1.31-1.12.63-1.71,1.92-2.75,2.68-1.01.75-2.33.91-3.59.97-1.26.07-2.56.08-3.7.6-1.14.52-2.09,1.73-1.85,2.97l43.44-.43Z" style="fill: #f5f5f5;"/>
    </g>
    <g id="Background_Simple" style="display: none;">
      <path d="M-118.69,145.7c-2.86-21.77,16.15-43.82,38.1-44.2,10.51-.18,21.2,3.85,31.34,1.07,21.81-5.97,25.61-37.37,45.18-48.7,13.53-7.83,31.91-3.31,42.81,7.89,10.9,11.2,15.15,27.57,14.77,43.2-.97,39.48-31.81,76.24-70.52,84.05-38.71,7.81-96.31-5.79-101.79-44.17" style="fill: #ebebeb;"/>
      <circle cx="107.52" cy="59.07" r="28.51" transform="translate(32.13 155.84) rotate(-80.86)" style="fill: #ebebeb;"/>
      <path d="M530.24,164.55c-.85-.15-1.18-.31-1.91-.35-1.64-.18-1.97-.08-3.63.06-13.14.92-25.46,11.75-26.94,25.03-1.7,15.35,11.46,30.71,26.89,31.38,15.43.67,29.88-13.49,29.52-28.93-.3-13.12-11.23-24.81-23.94-27.2Z" style="fill: #ebebeb;"/>
    </g>
    <g id="Floor">
      <path d="M306.67,371.8c0,.06-58.81.1-131.34.1s-131.36-.04-131.36-.1,58.8-.1,131.36-.1,131.34.04,131.34.1Z" style="fill: #263238;"/>
    </g>
    <g id="Plants">
      <g>
        <path d="M149.05,355.68c.82.16,1.53.73,1.97,1.44.45.71.66,1.55.74,2.38.17,1.61-.38,3.4-1.06,4.87-1.58-.87-2.33-2.82-2.65-3.83-.5-1.6-.44-4.8.99-4.86" style="fill: #00450f;"/>
        <path d="M152.81,366.62c-.41-.84-.25-1.9.3-2.66.55-.76,1.45-1.23,2.37-1.36.43-.06.91-.04,1.23.26.3.27.37.73.27,1.12-.11.39-.37.72-.65,1.01-.99.97-2.13,1.73-3.51,1.63" style="fill: #00450f;"/>
        <path d="M152.18,371.82s-.02-.12-.02-.33c0-.24-.02-.54-.03-.91-.01-.76-.06-1.85.29-2.99.34-1.14.96-2.05,1.54-2.57.29-.26.55-.44.74-.54.09-.06.17-.09.22-.11.05-.02.08-.03.08-.03.02.02-.43.21-.98.74-.55.52-1.15,1.43-1.48,2.54-.34,1.12-.31,2.19-.32,2.96,0,.38,0,.7,0,.91,0,.21-.01.33-.02.33Z" style="fill: #263238;"/>
        <path d="M149.22,358.12s.02.05.05.14c.03.1.07.24.11.4.1.35.23.85.39,1.48.32,1.25.73,2.99,1.15,4.92.41,1.93.75,3.68.98,4.95.11.64.2,1.15.26,1.51.03.17.05.31.06.41.01.09.02.14.01.14,0,0-.02-.05-.04-.14-.02-.11-.05-.24-.08-.41-.07-.37-.17-.88-.29-1.5-.25-1.27-.59-3.02-1.01-4.94-.41-1.93-.82-3.66-1.11-4.92-.15-.62-.27-1.12-.35-1.49-.04-.17-.07-.3-.09-.41-.02-.09-.03-.14-.02-.14Z" style="fill: #263238;"/>
        <path d="M150.73,368.09c-.72-1.84-2.38-3.28-4.3-3.73-.49-.11-1.1-.13-1.39.28-.29.41-.08.98.2,1.4,1.16,1.74,3.45,2.65,5.49,2.18" style="fill: #00450f;"/>
        <path d="M146.97,365.8s.11.01.31.06c.1.02.22.05.35.1.14.05.3.09.46.16.17.07.35.14.54.25.19.09.39.21.59.34.4.26.82.59,1.2,1,.38.41.68.84.92,1.26.11.21.22.41.3.61.09.19.15.38.21.56.06.17.09.33.13.47.04.14.05.26.07.36.03.2.04.31.03.31-.03,0-.08-.44-.31-1.12-.06-.17-.12-.35-.22-.54-.08-.19-.19-.39-.3-.6-.24-.41-.54-.83-.91-1.23-.38-.4-.78-.72-1.17-.99-.2-.13-.39-.25-.58-.34-.18-.11-.36-.18-.53-.26-.66-.28-1.1-.38-1.09-.4Z" style="fill: #263238;"/>
      </g>
    </g>
    <g id="Vehicle">
      <g>
        <rect x="69.69" y="320.97" width="171.03" height="17.09" style="fill: #e8505b;"/>
        <g style="opacity: .4;">
          <rect x="69.69" y="320.97" width="171.03" height="17.09"/>
        </g>
      </g>
      <g>
        <rect x="153.18" y="340.22" width="50.49" height="15.83" style="fill: #455a64;"/>
        <polygon points="117.9 333.06 117.9 353.99 135.14 353.99 142.05 343.97 267.92 343.97 267.92 333.06 117.9 333.06" style="fill: #263238;"/>
        <path d="M116.82,266.8c-.04-.7-.63-1.24-1.33-1.21-6.81.28-39.16,1.76-45.81,4.96-5.09,2.45-10.67,11.59-14.6,17.75-2.82,4.41-9.05,14.21-10.31,19.22-1.07,4.24-1.71,13.05-1.64,17.42l1.78,23.13h29.31l2.94-7.64c1.91-4.98,6.7-8.27,12.04-8.27h29.13v-38.38l-1.51-26.98Z" style="fill: #b2d24a;"/>
        <path d="M66.21,273.11c-4.03,3.85-8.08,10.41-11.13,15.19-2.61,4.09-8.14,12.79-9.95,18.03-.03.1-.06.19-.09.28.89-.25,2.27-.75,2.69-1.6.64-1.28,1.47-5.68,11.66-22.27,3.1-5.05,6.13-8.01,6.82-9.65Z" style="fill: #455a64;"/>
        <g>
          <path d="M101.77,271.39c-7.49.43-23.74,1.52-28.94,3.3-6.76,2.32-14.35,20.22-14.71,21l-5.12,13.09c-.12.37.15.75.54.75h13.22c.5,0,1-.09,1.46-.26l34.78-12.96c1.57-.59,2.62-2.09,2.62-3.77v-17.51c0-2.1-1.76-3.77-3.86-3.65Z" style="fill: #263238;"/>
          <path d="M54.47,308.26s4.91-11,6.55-14.59c2.49-5.44,8.3-16.58,12.22-17.76,3.61-1.08,13.99-2.4,28.59-3.24.05,0,.09,0,.14,0,1.3,0,2.36,1.06,2.36,2.37v17.91c0,.9-.57,1.71-1.41,2.03l-25.69,3.17c-2.08.26-3.95,1.42-5.1,3.17l-4.45,6.79c-.26.1-.54.15-.82.15h-12.39Z" style="fill: #455a64;"/>
          <path d="M76.31,298.35l-8.75,9.73,4.83-32.3,1.21-.42-2.38,23.93c-.05.53.47.92.96.72l4.12-1.66Z" style="fill: #263238;"/>
        </g>
        <path d="M42.57,327.19c-.03-.42.11-.76.32-.78l4.69-.43c.39-.04.74.69.79,1.56l.21,3.59c.03.58-.14,1.06-.4,1.11l-4.78.82c-.22.04-.42-.28-.45-.71l-.38-5.16Z" style="fill: #ebebeb;"/>
        <rect x="42.56" y="343.97" width="33.75" height="13.53" style="fill: #263238;"/>
        <g>
          <circle cx="98.14" cy="353.18" r="18.46" transform="translate(-13.5 4.03) rotate(-2.2)" style="fill: #263238;"/>
          <path d="M79.68,352.87s0,.03,0,.05c-.15,10.2,8,18.58,18.19,18.73,10.2.15,18.58-8,18.73-18.19,0-.02,0-.03,0-.05l-36.92-.53Z" style="fill: #263238;"/>
          <path d="M85.18,353c-.1,7.16,5.62,13.04,12.77,13.15,7.16.1,13.04-5.62,13.15-12.77.1-7.16-5.62-13.04-12.77-13.15-7.16-.1-13.04,5.62-13.15,12.77Z" style="fill: #fafafa;"/>
          <path d="M98.32,340.22c-7.16-.1-13.04,5.62-13.15,12.77l25.92.37c.1-7.16-5.62-13.04-12.77-13.15Z" style="fill: #e0e0e0;"/>
          <path d="M90.24,353.07c-.06,4.36,3.42,7.95,7.78,8.01,4.36.06,7.95-3.42,8.01-7.78.06-4.36-3.42-7.95-7.78-8.01-4.36-.06-7.95,3.42-8.01,7.78Z" style="fill: #263238;"/>
        </g>
        <g>
          <rect x="57.74" y="283.12" width="7.65" height="18.37" rx="3.07" ry="3.07" style="fill: #263238;"/>
          <path d="M54.58,312.84h-.39v-19.42c0-1.93,1.57-3.49,3.49-3.49h.92v.39h-.92c-1.71,0-3.11,1.39-3.11,3.11v19.42Z" style="fill: #263238;"/>
          <path d="M57.2,312.87l-1.07-18.16c-.04-.64.18-1.24.62-1.7.44-.46,1.03-.72,1.66-.72v.39c-.53,0-1.02.21-1.38.6-.36.39-.55.89-.51,1.42l1.07,18.16-.38.02Z" style="fill: #263238;"/>
          <rect x="53.22" y="311.09" width="5.19" height="6.01" style="fill: #263238;"/>
          <rect x="54.38" y="299.68" width="2.11" height=".39" style="fill: #263238;"/>
        </g>
        <path d="M74.11,271.91s.15-.02.46-.06c.31-.04.76-.09,1.35-.16,1.19-.14,2.96-.34,5.24-.6,4.57-.52,11.21-1.28,19.52-2.22,1.04-.11,2.1-.25,3.2-.35.55-.06,1.12.01,1.67.11.55.14,1.1.32,1.61.61,1.01.56,1.89,1.44,2.43,2.52.27.54.47,1.13.56,1.74.07.3.06.62.08.93,0,.31,0,.62,0,.93,0,4.97,0,10.31.01,15.97,0,11.32,0,23.9.01,37.34v.1s-.1,0-.1,0c-4.33,0-8.78,0-13.32,0-2.27,0-4.56,0-6.87,0-1.16,0-2.32-.03-3.46.16-1.15.14-2.26.51-3.34.93-3.35,1.44-6.02,4.25-7.31,7.57-.14.42-.33.83-.42,1.26-.1.43-.25.85-.29,1.29l-.1.65-.05.33-.02.33-.03.66-.02.33v.04c.09-.09-.12.13-.1.11h-.28c-1.77,0-3.52,0-5.26,0-6.95,0-13.67,0-20.09,0h-.09s0-.09,0-.09c0-5.81,0-11.4,0-16.75,0-2.67,0-5.28,0-7.83,0-1.27,0-2.53,0-3.77,0-.62,0-1.23,0-1.85.01-.61.06-1.22.13-1.82.3-2.4,1.08-4.66,2.18-6.63,1.06-1.99,2.09-3.92,3.07-5.77,1.98-3.71,3.8-7.13,5.45-10.23,1.65-3.1,3.14-5.88,4.43-8.31.32-.61.64-1.19.94-1.75.15-.28.29-.56.45-.82.16-.26.34-.51.52-.74.73-.92,1.55-1.63,2.34-2.17,1.59-1.08,3.03-1.51,3.99-1.74.97-.22,1.49-.24,1.49-.24,0,0-.13.02-.38.06-.25.04-.62.1-1.1.22-.96.24-2.39.68-3.97,1.76-.78.54-1.59,1.25-2.31,2.17-.18.23-.35.47-.51.73-.16.26-.29.54-.45.82-.3.56-.61,1.15-.93,1.76-1.29,2.43-2.76,5.21-4.41,8.32-1.65,3.1-3.46,6.53-5.43,10.24-.98,1.86-2.01,3.78-3.06,5.78-1.09,1.97-1.86,4.2-2.15,6.58-.07.59-.11,1.2-.13,1.8-.01.61,0,1.22,0,1.84,0,1.24,0,2.49,0,3.77,0,2.54,0,5.16,0,7.83,0,5.35,0,10.94,0,16.75l-.09-.09c6.41,0,13.14,0,20.09,0,1.74,0,3.49,0,5.26,0h.17s.08,0,.08,0h.03s-.19.18-.1.09v-.04s.02-.33.02-.33l.03-.67.02-.33.05-.33.1-.66c.05-.45.2-.87.3-1.31.09-.44.28-.85.43-1.28,1.3-3.36,4.01-6.22,7.41-7.68,1.1-.43,2.22-.81,3.39-.95,1.16-.19,2.34-.16,3.48-.16,2.31,0,4.6,0,6.87,0,4.54,0,8.99,0,13.32,0l-.1.1c0-13.44,0-26.03.01-37.34,0-5.66,0-11,.01-15.97,0-.62.02-1.24-.08-1.83-.08-.6-.28-1.17-.54-1.7-.53-1.06-1.38-1.92-2.37-2.47-.49-.28-1.03-.46-1.57-.6-.54-.1-1.09-.17-1.64-.11-1.09.09-2.15.23-3.19.34-8.31.92-14.95,1.66-19.52,2.16-2.28.25-4.04.44-5.24.57-.59.06-1.05.11-1.35.14-.3.03-.46.04-.46.04Z" style="fill: #263238;"/>
        <g>
          <path d="M104.1,314.48s.11,0,.3-.04c.19-.03.48-.11.79-.32.31-.2.64-.55.81-1.05.09-.25.12-.53.1-.83,0-.3-.08-.61-.23-.9-.3-.58-.96-1.06-1.74-1.06-.8,0-1.65,0-2.54,0-1.79,0-3.76,0-5.82,0-.49,0-.97.19-1.33.52-.35.32-.58.77-.63,1.23-.05.47.02.94.24,1.33.22.39.57.69.96.86.4.18.83.15,1.25.15.42,0,.84,0,1.23,0,.79,0,1.54,0,2.21.01,1.34.01,2.43.02,3.21.03.36,0,.65.01.87.02.2,0,.3.01.3.02s-.1.01-.3.02c-.22,0-.51.01-.87.02-.78,0-1.87.02-3.21.03-.68,0-1.42,0-2.21.01-.4,0-.81,0-1.23,0-.21,0-.42,0-.65,0-.23-.02-.46-.06-.67-.15-.43-.18-.82-.5-1.06-.93-.25-.42-.32-.95-.27-1.44.05-.51.3-1,.69-1.36.39-.36.92-.57,1.46-.57,2.07,0,4.03,0,5.82,0,.89,0,1.75,0,2.54.01.84,0,1.54.54,1.86,1.16.16.31.23.65.24.96,0,.31-.03.61-.12.87-.19.52-.54.88-.87,1.08-.33.2-.63.27-.83.29-.2.02-.31,0-.31,0Z" style="fill: #263238;"/>
          <path d="M103.38,309.64c0,.05-1.48.1-3.3.1s-3.3-.04-3.3-.1,1.48-.1,3.3-.1,3.3.04,3.3.1Z" style="fill: #fff;"/>
        </g>
        <path d="M77.84,357.62l-3.07-.22c.8-11.03,1.98-17.63,3.6-20.18,3.11-4.89,6.21-5.77,9.64-6.36,3.19-.54,6.41-.41,9.52-.29l.76.03c6.42.25,19.88.03,20.02.03l.05,3.08c-.14,0-13.68.23-20.19-.03l-.77-.03c-2.95-.12-6.01-.24-8.88.25-3.06.52-5.1,1.12-7.56,4.98-.74,1.17-2.14,5.16-3.13,18.75Z" style="fill: #263238;"/>
        <rect x="119.95" y="231.92" width="151.74" height="101.03" style="fill: #00450f;"/>
        <path d="M269.88,330.95c0-.65-.03-37.71-.08-96.75l.08.08c-40.65,0-92.28.01-148.29.02h-.01l.1-.1c0,34.39,0,67.13,0,96.75l-.09-.09c87.25.05,147.47.09,148.3.09-.83,0-61.05.04-148.3.09h-.09s0-.09,0-.09c0-29.62,0-62.36,0-96.75v-.1h.11c56.01,0,107.63.01,148.29.02h.08v.08c-.05,59.04-.08,96.1-.08,96.75Z" style="fill: #263238;"/>
        <path d="M98.37,279.76s-.04.05-.14.12c-.12.08-.26.18-.42.31-.37.26-.91.63-1.58,1.09-1.34.91-3.22,2.15-5.3,3.49-2.09,1.34-3.99,2.52-5.38,3.36-.69.42-1.26.76-1.65.98-.18.1-.33.19-.46.26-.11.06-.16.08-.17.08s.05-.04.14-.11c.12-.08.26-.17.44-.29.41-.26.96-.61,1.62-1.04,1.39-.89,3.27-2.09,5.35-3.41,2.07-1.33,3.94-2.54,5.33-3.44.66-.42,1.21-.77,1.62-1.04.18-.11.32-.2.45-.27.1-.06.16-.09.16-.08Z" style="fill: #fafafa;"/>
        <path d="M91.8,281.5s-.04.05-.14.12c-.12.08-.26.18-.42.31-.37.26-.91.63-1.58,1.09-1.34.91-3.22,2.15-5.3,3.49-2.09,1.34-3.99,2.52-5.38,3.36-.69.42-1.26.76-1.65.98-.18.1-.33.19-.46.26-.11.06-.16.08-.17.08s.05-.04.14-.11c.12-.08.26-.17.44-.29.41-.26.96-.61,1.62-1.04,1.39-.89,3.27-2.09,5.35-3.41,2.07-1.33,3.94-2.54,5.33-3.44.66-.42,1.21-.77,1.62-1.04.18-.11.32-.2.45-.27.1-.06.16-.09.16-.08Z" style="fill: #fafafa;"/>
        <path d="M59.37,292.72s-.06-.12-.12-.34c-.06-.22-.15-.54-.24-.94-.18-.8-.42-1.93-.41-3.2,0-1.27.34-2.41.73-3.14.2-.37.39-.64.55-.82.15-.18.25-.26.26-.25.03.02-.33.4-.68,1.13-.36.73-.65,1.83-.66,3.07,0,1.24.2,2.36.35,3.16.15.81.25,1.31.22,1.31Z" style="fill: #fafafa;"/>
        <path d="M43.7,320.02s-.02-.15-.02-.43c0-.28,0-.68.02-1.17.03-.99.1-2.35.22-3.86.12-1.51.26-2.87.39-3.85.06-.49.12-.89.16-1.16.04-.27.07-.42.09-.42s0,.16-.01.43c-.03.32-.06.71-.1,1.17-.09,1.03-.2,2.37-.33,3.85-.11,1.48-.2,2.82-.28,3.85-.03.46-.06.85-.09,1.17-.02.28-.04.43-.06.43Z" style="fill: #fafafa;"/>
        <path d="M85.9,327.5s-.74.15-1.89.52c-.58.18-1.25.45-1.97.8-.71.36-1.47.8-2.22,1.35-.74.55-1.39,1.14-1.95,1.71-.55.58-1,1.14-1.35,1.64-.7.99-1.02,1.67-1.06,1.65-.01,0,.06-.18.21-.48.07-.15.17-.34.29-.55.12-.21.26-.45.44-.7.33-.51.79-1.09,1.33-1.68.56-.59,1.21-1.19,1.97-1.75.76-.55,1.53-1,2.26-1.35.73-.34,1.42-.6,2.01-.77.29-.1.56-.15.8-.21.24-.06.44-.09.61-.12.34-.05.52-.07.53-.06Z" style="fill: #fafafa;"/>
        <g>
          <g>
            <circle cx="234.52" cy="353.18" r="18.46" transform="translate(-13.9 9.63) rotate(-2.29)" style="fill: #263238;"/>
            <path d="M216.06,352.87s0,.03,0,.05c-.15,10.2,8,18.58,18.19,18.73,10.2.15,18.58-8,18.73-18.19,0-.02,0-.03,0-.05l-36.92-.53Z" style="fill: #263238;"/>
            <path d="M221.56,353c-.1,7.16,5.62,13.04,12.77,13.15,7.16.1,13.04-5.62,13.15-12.77.1-7.16-5.62-13.04-12.77-13.15-7.16-.1-13.04,5.62-13.15,12.77Z" style="fill: #fafafa;"/>
            <path d="M234.7,340.22c-7.16-.1-13.04,5.62-13.15,12.77l25.92.37c.1-7.16-5.62-13.04-12.77-13.15Z" style="fill: #e0e0e0;"/>
            <path d="M226.62,353.07c-.06,4.36,3.42,7.95,7.78,8.01,4.36.06,7.95-3.42,8.01-7.78.06-4.36-3.42-7.95-7.78-8.01-4.36-.06-7.95,3.42-8.01,7.78Z" style="fill: #263238;"/>
          </g>
          <path d="M210.25,358.24s-2.81-26.18,24.32-26.18c25.04,0,24.48,22.52,24.24,26.01h-3.93s2-22.2-20.32-22.2-20.37,22.65-20.37,22.65c0,0-1.65-.09-3.95-.28Z" style="fill: #455a64;"/>
          <path d="M224.78,334.76s-.07.03-.21.08c-.14.05-.35.1-.62.19-.53.17-1.3.44-2.21.86-1.81.83-4.19,2.35-6.16,4.69-1.97,2.34-3.06,4.95-3.56,6.88-.26.97-.39,1.77-.47,2.32-.04.28-.06.49-.08.64-.02.15-.03.22-.04.22,0,0,0-.08,0-.23,0-.15.01-.37.04-.65.05-.56.17-1.37.41-2.35.47-1.95,1.55-4.6,3.54-6.97,1.99-2.37,4.41-3.89,6.25-4.69.92-.41,1.7-.66,2.24-.81.27-.08.49-.12.63-.16.14-.03.22-.04.22-.04Z" style="fill: #fafafa;"/>
        </g>
      </g>
      <path d="M157.48,295.09h-11.46s-.05,0-.07-.01c-.75-.05-1.34-.53-1.52-1.25,0-.02-.01-.03-.02-.05-.2.16-.42.18-.65.11-.23-.07-.42-.21-.59-.36-.41-.35-.73-.78-1.01-1.24-.81-1.34-1.09-2.81-.94-4.36.09-.99.36-1.94.75-2.85.32-.75.73-1.45,1.21-2.1.34-.46.7-.91,1.13-1.3.05-.05.08-.09.08-.17,0-2.98,0-5.96,0-8.95,0-.21.03-.42.11-.62.25-.65.85-1.05,1.58-1.06h2.18v-.72c0-.52.35-.87.87-.87h5.24c.42,0,.76.28.82.7.02.17.01.35.01.53v.37h2.18c.1,0,.19,0,.29.01.74.06,1.39.68,1.47,1.43.02.14.02.28.02.4.12-.03.23-.07.34-.08.35-.03.61.12.82.39.24.31.37.66.47,1.03.38,1.36.51,2.74.38,4.14-.07.76-.27,1.48-.6,2.17-.36.73-.82,1.39-1.34,2-.05.06-.08.13-.08.21,0,3.11,0,6.21,0,9.32,0,.52,0,1.04,0,1.56,0,.76-.55,1.42-1.29,1.58-.12.02-.23.03-.35.05h0ZM160.92,277.37c0-.92-.08-1.67-.22-2.42-.09-.45-.19-.89-.37-1.31-.09-.22-.21-.42-.39-.58-.15-.13-.32-.17-.51-.13-.21.04-.36.2-.4.46-.02.16-.08.31-.18.43-.19.23-.38.46-.6.66-.63.59-1.35,1.06-2.14,1.43-.69.32-1.39.61-2.09.89-1.41.57-2.83,1.13-4.21,1.76-1.47.67-2.88,1.44-4.19,2.4-.49.36-.98.73-1.4,1.18-.94,1-1.66,2.14-2.16,3.42-.51,1.32-.74,2.68-.55,4.1.14,1.08.53,2.06,1.18,2.94.22.29.46.57.75.79.14.11.28.2.45.24.18.04.31-.01.39-.17.04-.08.08-.17.1-.27.07-.35.12-.7.18-1.05.06-.36.14-.72.3-1.05.33-.64.82-1.14,1.41-1.54.69-.47,1.44-.8,2.22-1.1.79-.31,1.59-.61,2.38-.92,1.26-.5,2.47-1.09,3.63-1.77,1.22-.71,2.37-1.51,3.41-2.47.73-.67,1.39-1.41,1.93-2.24.4-.63.72-1.29.89-2.02.14-.6.17-1.2.17-1.65h0Z" style="fill: #fff;"/>
      <path d="M142.94,291.94c-.05-.23-.1-.45-.14-.68-.18-1.09.05-2.11.51-3.1.51-1.08,1.22-2.01,2.06-2.84.96-.96,2.06-1.74,3.24-2.4,1.71-.96,3.41-1.93,5.14-2.86,1.06-.57,2.09-1.17,3.06-1.89.66-.49,1.28-1.03,1.8-1.67.66-.8,1.07-1.7,1.21-2.73.02-.11.03-.23.05-.34h.02c0,.06.02.12.02.19.02.75-.16,1.47-.5,2.14-.35.68-.83,1.26-1.38,1.78-.89.83-1.87,1.52-2.93,2.11-1.76.99-3.52,1.99-5.26,3.01-1.36.8-2.63,1.72-3.83,2.75-.71.61-1.36,1.28-1.88,2.06-.65.98-1.04,2.05-1.14,3.22-.03.37-.02.74-.02,1.11v.14s-.02,0-.02,0h0Z" style="fill: #fff;"/>
      <g>
        <rect x="168.14" y="274.06" width="89.33" height="21.52" style="fill: none;"/>
        <path d="M171.02,289.74v-15.26h4.27c2.72,0,4.81.67,6.21,2.03,1.39,1.36,2.09,3.21,2.09,5.57,0,5.12-2.75,7.66-8.29,7.66,0,0-4.27,0-4.27,0ZM175.29,277.03h-1.45v10.17h1.45c1.88,0,3.21-.42,4.03-1.3.82-.88,1.21-2.15,1.21-3.84,0-1.54-.42-2.75-1.24-3.66-.85-.91-2.18-1.36-4-1.36Z" style="fill: #fff;"/>
        <path d="M185.37,284.26c0-1.73.48-3.12,1.42-4.12.94-1.03,2.27-1.54,3.94-1.54s2.94.51,3.84,1.54,1.39,2.39,1.39,4.12v.91h-7.72c.12.82.45,1.48.94,1.97.51.48,1.18.73,2,.73,1.21,0,2.18-.3,2.88-.91l1.33,1.51c-1.03,1.03-2.51,1.54-4.48,1.54-1.73,0-3.06-.48-4.06-1.48-1-1-1.48-2.42-1.48-4.27ZM190.73,280.63c-1.42,0-2.27.88-2.51,2.6h4.99c-.21-1.73-1.06-2.6-2.48-2.6Z" style="fill: #fff;"/>
        <path d="M200.57,281.69c0,.3.15.54.42.73.3.18.67.33,1.09.39.42.09.91.18,1.39.36.51.15.97.33,1.39.54s.79.54,1.09,1.03c.3.48.42,1.06.42,1.76,0,2.33-1.6,3.51-4.78,3.51-1.88,0-3.3-.27-4.33-.79l.61-1.97c1.03.45,2.15.7,3.39.7,1.54,0,2.33-.42,2.33-1.24,0-.36-.21-.64-.61-.85s-.91-.36-1.48-.51c-.58-.12-1.15-.27-1.73-.48-.58-.18-1.06-.54-1.48-1.03-.39-.48-.61-1.12-.61-1.91,0-1.18.42-2.03,1.24-2.57s1.94-.79,3.3-.79c1.54,0,2.82.27,3.84.85l-.91,1.82c-.97-.39-1.94-.61-2.91-.61-1.09,0-1.7.36-1.7,1.06Z" style="fill: #fff;"/>
        <path d="M214.55,278.6c1.36,0,2.45.54,3.27,1.6.82,1.06,1.24,2.42,1.24,4.06s-.42,3-1.24,4.12c-.82,1.09-1.91,1.63-3.27,1.63-1.21,0-2.27-.42-3.15-1.3v5.63h-2.75v-15.44h2.3l.45,1.03v.27c.79-1.09,1.82-1.6,3.15-1.6ZM215.58,286.56c.45-.61.67-1.39.67-2.3s-.21-1.66-.67-2.27c-.45-.58-1.06-.88-1.79-.88s-1.39.3-1.82.91c-.45.61-.67,1.33-.67,2.24,0,.97.24,1.73.73,2.33.48.61,1.09.91,1.82.91.73-.03,1.3-.33,1.73-.94Z" style="fill: #fff;"/>
        <path d="M221.54,276.48c-.33-.3-.51-.7-.51-1.12s.18-.82.51-1.12c.33-.3.73-.45,1.18-.45s.85.15,1.18.45c.33.3.51.7.51,1.12s-.18.82-.51,1.12c-.33.3-.73.45-1.18.45-.45.03-.85-.15-1.18-.45ZM224.09,289.74h-2.75v-10.9h2.75v10.9Z" style="fill: #fff;"/>
        <path d="M226.87,285.96v-11.9h2.75v12.05c0,.91.33,1.36,1,1.36.33,0,.61,0,.82-.03l.15,2.33c-.64.15-1.21.21-1.76.21-2-.03-2.97-1.36-2.97-4.03Z" style="fill: #fff;"/>
        <path d="M233.23,274.06h2.75v6.18c.88-1.09,1.94-1.63,3.15-1.63s2.21.42,2.88,1.27,1,2.06,1,3.63v6.27h-2.75v-6.15c0-.85-.18-1.48-.54-1.91-.36-.42-.82-.64-1.39-.64-.7,0-1.24.24-1.66.7s-.67,1.09-.67,1.91v6.05h-2.75v-15.68h0Z" style="fill: #fff;"/>
        <path d="M245.12,284.26c0-1.73.48-3.12,1.42-4.12.94-1.03,2.27-1.54,3.94-1.54s2.94.51,3.84,1.54,1.39,2.39,1.39,4.12v.91h-7.72c.12.82.45,1.48.94,1.97.51.48,1.18.73,2,.73,1.21,0,2.18-.3,2.88-.91l1.33,1.51c-1.03,1.03-2.51,1.54-4.48,1.54-1.73,0-3.06-.48-4.06-1.48-.97-1-1.48-2.42-1.48-4.27ZM250.48,280.63c-1.42,0-2.27.88-2.51,2.6h4.99c-.21-1.73-1.06-2.6-2.48-2.6Z" style="fill: #fff;"/>
      </g>
      <g>
        <path d="M375.75,144.02s-119.05-31-163.07-39.53c-44.03-8.53-19.32,47.39-19.32,47.39l13.48,43.35c6.29,29.19,33.24,29.19,33.24,29.19,0,0,27.16.55,61.23.36l-12.27,31.57,22.91-2.73s-20.67,33.24-19.09,33.69c1.57.45,52.34-56.15,52.34-56.15l-18.05,3.14,5.69-9.95c43.73-1.69,43.86-25.23,43.86-25.23,0,0,1.73-7.03,5.33-30.39,3.59-23.36-6.29-24.71-6.29-24.71Z" style="fill: #fff;"/>
        <path d="M375.75,141.52c-6.47-1.69-12.95-3.35-19.43-5.01-15.33-3.93-30.67-7.82-46.02-11.66-17.99-4.5-36.01-8.93-54.06-13.2-14.66-3.47-29.35-7.07-44.17-9.78-6.4-1.17-13.95-1.55-19.46,2.54-4.32,3.21-5.98,8.67-6.49,13.81-1.08,10.92,1.72,22.1,5.54,32.27.58,1.56,1.27,3.07,1.76,4.65l5.11,16.43c2.09,6.71,4.17,13.42,6.26,20.13.55,1.77,1.14,3.53,1.65,5.31.98,3.42,1.88,7.01,3.5,10.33,5.5,11.21,16.81,18.78,29.3,19.55,3.01.19,6.04.13,9.06.17,10.59.15,21.19.23,31.78.26,7.08.02,14.15,0,21.23-.04l-.28-4.66c-3.58,9.21-7.16,18.43-10.74,27.64-.51,1.31-1.02,2.62-1.53,3.93-.19.49-.59,4.76.28,4.66,6.67-.79,13.33-1.59,20-2.38l2.91-.35-.15-4.91c-4.3,6.92-8.53,13.88-12.63,20.91-2.16,3.71-4.48,7.45-6.2,11.39-.23.53-.44,1.07-.57,1.64-.14.65-.19,1.32-.19,1.98,0,.62-.06,1.89.36,2.41s.83-.01,1.24-.36c2.08-1.74,3.94-3.79,5.82-5.74,3.24-3.36,6.43-6.78,9.6-10.2,7.58-8.17,15.08-16.4,22.56-24.66,2.94-3.25,5.88-6.5,8.82-9.76,1.5-1.67,3.11-3.28,4.52-5.03.06-.08.14-.15.21-.23.45-.5.62-5.04-.15-4.91-6.02,1.05-12.03,2.09-18.05,3.14l.15,4.91c.89-1.55,1.77-3.1,2.66-4.65l1.92-3.36c.27-.47.63-1.55,1.08-1.88.09-.06.68,0,.76,0,.57,0,1.14-.06,1.71-.09,1.16-.07,2.33-.16,3.49-.27,2.08-.19,4.15-.45,6.2-.79,3.48-.57,6.94-1.36,10.29-2.48,8.01-2.66,15.78-7.4,19.64-15.18,1-2.02,1.68-4.2,2-6.43.08-.57.14-1.15.17-1.73.11-2.05-.17,1.09-.12.98.07-.18.09-.39.13-.58.76-3.38,1.37-6.79,1.97-10.2.66-3.71,1.28-7.42,1.88-11.13.79-4.85,1.67-9.72,2.07-14.62.48-5.99.55-13.05-2.44-18.48-.67-1.21-1.53-2.34-2.65-3.16-.53-.39-1.36-1-2.05-1.06-.1,0-.2-.05-.3-.07-.59-.08-.99,4.86,0,5,1.33.19,2.53,1.21,3.37,2.18,2.77,3.18,3.24,7.76,3.15,11.64-.11,4.56-1,9.08-1.71,13.57-.59,3.7-1.2,7.39-1.84,11.07s-1.32,7.48-2.12,11.19c-.09.39-.19.78-.27,1.18-.11.54-.27,1.24-.16,1.78.02.08.03-.91.01-.53-.03.71.08-.49,0-.04-.02.12-.03.25-.05.37-.07.54.02-.04,0,.02-.09.38-.16.77-.25,1.16-.02.1-.05.19-.08.29-.05.19.1-.33-.01.04-.08.26-.16.52-.25.78-.18.53-.38,1.04-.61,1.55-3.1,7.06-10.09,11.83-17.16,14.57s-13.93,3.78-21.08,4.3c-1.06.08-2.12.14-3.19.18-.47.02-.63,0-.91.3-.51.54-.84,1.47-1.21,2.12l-3.6,6.3-.78,1.36c-.28.48-.73,5.06.15,4.91,6.02-1.05,12.03-2.09,18.05-3.14l-.15-4.91c-3.47,3.87-6.95,7.73-10.43,11.58-7.12,7.87-14.26,15.73-21.45,23.54-5.8,6.3-11.56,12.69-17.68,18.68-.67.66-1.35,1.34-2.09,1.93-.1.08-.21.16-.31.24-.15.12-.08-.02-.11.07.01-.04-.13.16-.06.06.02-.04.1.13.1.13-.25.76.37,2.38.21,3.53-.05.33.11-.07-.07.31,1.55-3.24,3.17-6.4,4.96-9.53,4.41-7.69,9.03-15.26,13.7-22.79.1-.16.19-.31.29-.47.31-.5.76-5.02-.15-4.91-6.67.79-13.33,1.59-20,2.38l-2.91.35.28,4.66c3.58-9.21,7.16-18.43,10.74-27.64.51-1.31,1.02-2.62,1.53-3.93.21-.53.65-4.66-.28-4.66-20.11.11-40.22.03-60.32-.34-8.41-.16-16.86-3.32-23.09-9.02-3.09-2.83-5.64-6.27-7.47-10.04-1.08-2.22-1.95-4.55-2.6-6.93-.3-1.08-.5-2.19-.83-3.26-1.47-4.8-2.98-9.59-4.47-14.38-2.13-6.86-4.26-13.72-6.4-20.58-.85-2.73-1.54-5.58-2.59-8.25-1.11-2.82-2.2-5.63-3.12-8.52-1.55-4.88-2.74-9.9-3.25-14.89-.06-.62.04.49-.01-.13-.01-.15-.03-.3-.04-.45-.03-.33-.05-.67-.07-1s-.03-.66-.04-.99c-.01-.39,0,.63,0,.03,0-.24,0-.48,0-.72,0-.3,0-.59,0-.89.01-.62-.03.57,0-.04,0-.18.02-.35.03-.53.02-.29.04-.58.06-.87.05-.59-.06.5,0-.09.03-.23.05-.45.08-.68.11-.84.08-.66.25-1.49.14-.68.27-1.17.43-1.68.34-1.07.76-2.12,1.32-3.1,2.86-5.02,8.22-7.08,13.78-7.32,6.94-.31,13.96,1.67,20.7,3.11,7.52,1.61,15.03,3.31,22.52,5.05,17.63,4.09,35.21,8.38,52.77,12.73,16.25,4.03,32.49,8.13,48.72,12.27,8.95,2.29,17.9,4.58,26.85,6.91.41.11.82.21,1.23.32s1.09-4.72,0-5Z"/>
      </g>
      <text transform="translate(207.3 163.2)" style="font-family: Poppins-Bold, Poppins; font-size: 13px; font-weight: 700;"><tspan x="0" y="0">Te vejo no dia da coleta. </tspan><tspan x="0" y="15.6">Parabéns pela iniciativa!</tspan></text>
    </g>
    <g id="Character">
      <g>
        <g>
          <path d="M291.44,361.41l3.28,4.94,1.47,4.65c.11.34.47.51.8.38h0c.18-.07.32-.23.37-.42.3-1.22,1.38-5.7,1.12-6.05-.3-.4-3.12-5.44-3.12-5.44l-3.93,1.93Z" style="fill: #455a64;"/>
          <g style="opacity: .6;">
            <path d="M297,371.39l1.28-6.8.13.21c.12.18.16.4.13.62-.08.58-.34,2.16-1.16,5.55-.05.2-.19.36-.38.43h0Z" style="fill: #fff;"/>
          </g>
          <g style="opacity: .6;">
            <path d="M296.22,363.62c-.07.17,0,.38.17.46.16.08.38,0,.46-.17.07-.16-.01-.43-.18-.49-.17-.06-.42.05-.46.23" style="fill: #fff;"/>
          </g>
          <path d="M296.76,368.47s-.3-.16-.69-.11c-.39.04-.62.28-.65.25-.01,0,.03-.09.13-.18.11-.09.29-.18.5-.2.21-.02.41.03.53.09.12.07.18.14.17.15Z" style="fill: #263238;"/>
          <path d="M296.82,369.37s-.27-.02-.58.07c-.31.08-.5.27-.53.25-.03-.02.14-.28.49-.37.35-.1.63.03.62.06Z" style="fill: #263238;"/>
          <path d="M296.88,367.19s-.41-.06-.9.04c-.49.09-.83.33-.85.3-.03-.02.3-.33.83-.43.52-.1.94.06.93.09Z" style="fill: #263238;"/>
          <path d="M296,365.61s-.34.1-.71.31c-.37.21-.6.48-.63.46-.03-.02.17-.34.56-.57.4-.23.78-.23.78-.2Z" style="fill: #263238;"/>
          <path d="M295.08,364.14s-.38.05-.75.31c-.38.25-.52.6-.56.59-.01,0,0-.1.07-.24.07-.14.21-.32.41-.45.2-.14.42-.2.57-.22.16-.02.25,0,.25.02Z" style="fill: #263238;"/>
          <path d="M294.16,364.16s-.06-.06-.13-.19c-.07-.13-.14-.33-.16-.59,0-.13-.02-.28.07-.44.05-.08.16-.13.26-.1.1.03.17.1.22.18.2.32.12.8-.21,1.07-.33.27-.79.27-1.11.08-.08-.05-.15-.12-.17-.23-.02-.11.06-.21.14-.24.16-.07.31-.05.44-.04.26.03.46.11.59.17.13.07.19.12.19.12,0,.02-.28-.17-.78-.21-.12,0-.27-.02-.38.04-.06.03-.09.08-.08.13,0,.05.06.11.12.15.26.15.68.15.96-.08.28-.23.35-.65.19-.91-.04-.06-.09-.11-.15-.13-.06-.02-.11,0-.15.05-.07.1-.07.25-.07.37.02.5.22.77.2.78Z" style="fill: #263238;"/>
        </g>
        <g>
          <g>
            <path d="M288.32,364.24l-.38,4.95s4.92,1.68,4.94,2.61l-9.64-.02.27-7.74,4.81.2Z" style="fill: #455a64;"/>
            <g style="opacity: .6;">
              <path d="M284.98,368.66c-.19.04-.33.25-.29.44.04.19.24.33.43.29.19-.04.36-.28.3-.47-.06-.18-.31-.34-.48-.25" style="fill: #fff;"/>
            </g>
            <g style="opacity: .6;">
              <path d="M283.24,371.78l.03-.78,9.31.35s.31.14.35.53l-9.69-.09Z" style="fill: #fff;"/>
            </g>
            <path d="M288.1,369.15s-.24.06-.48.2c-.24.14-.37.33-.41.31-.04-.01.04-.29.33-.46.29-.17.57-.1.56-.06Z" style="fill: #263238;"/>
            <path d="M289.1,369.61s-.2.12-.37.31c-.17.19-.22.4-.27.4-.04,0-.07-.27.15-.51.21-.24.49-.25.49-.2Z" style="fill: #263238;"/>
            <path d="M289.62,370.84s-.1-.23.03-.48c.13-.25.36-.35.37-.31.03.04-.12.17-.23.38-.11.21-.13.4-.18.41Z" style="fill: #263238;"/>
            <path d="M288.06,368.01s-.23-.03-.5-.02c-.27,0-.48.08-.5.04-.03-.04.18-.2.5-.21.31,0,.53.15.5.19Z" style="fill: #263238;"/>
          </g>
          <g style="opacity: .3;">
            <polygon points="288.24 365.22 288.18 366.1 283.45 365.87 283.47 365.07 288.24 365.22"/>
          </g>
          <path d="M288.12,367.01s-.19.04-.48-.02c-.15-.03-.32-.09-.5-.18-.09-.04-.18-.1-.27-.16-.04-.03-.09-.06-.14-.12-.05-.05-.07-.18-.01-.25.05-.07.14-.1.21-.1.07,0,.13.02.18.03.11.03.21.07.3.11.18.09.33.2.43.31.22.22.28.39.27.4-.02.01-.12-.14-.35-.32-.11-.09-.25-.18-.42-.26-.08-.04-.18-.07-.27-.1-.1-.03-.19-.04-.22,0-.01.02-.01.02,0,.05.02.03.06.06.1.09.08.06.17.11.25.16.16.09.32.15.46.2.27.09.45.11.45.13Z" style="fill: #263238;"/>
          <path d="M288.06,367.08s-.1-.17-.11-.47c0-.15.02-.33.09-.53.03-.1.08-.19.13-.29.06-.09.13-.22.32-.23.1,0,.17.08.2.14.03.07.03.12.04.18.01.11,0,.22-.01.32-.04.2-.13.37-.23.49-.2.24-.4.29-.4.27-.01-.02.15-.11.31-.34.08-.12.15-.27.17-.45.01-.09.02-.18,0-.28-.01-.1-.05-.19-.08-.18-.05,0-.13.07-.18.15-.05.08-.1.17-.13.26-.07.17-.1.34-.11.48-.02.28.02.46,0,.47Z" style="fill: #263238;"/>
        </g>
        <g>
          <g>
            <path d="M291.84,323.44s1.77,3.62,2.23,6.21c.13.73-5.06,37.88-5.06,37.88l-6.14-.23,2.88-34.57-1.02-6.94,7.12-2.35Z" style="fill: #263238;"/>
            <path d="M276.93,325.71s-.1,3.45.4,7.51c.45,3.64,1.49,7.79,1.83,10.11.75,5.13,2.22,6.1,2.22,6.1l11.78,15.07,4.61-4.16-10.38-16.61s-2.77-18.43-2.67-17.94c.1.5-7.79-.09-7.79-.09Z" style="fill: #263238;"/>
            <path d="M281.61,349.64s.03.06.11.16c.08.11.2.25.34.43.3.39.72.93,1.24,1.59,1.04,1.36,2.47,3.23,4.04,5.29,1.57,2.07,3.01,3.93,4.07,5.26.53.67.97,1.2,1.27,1.57.15.17.27.31.35.42.08.09.13.14.13.14,0,0-.03-.06-.11-.16-.08-.11-.2-.25-.34-.43-.3-.39-.72-.93-1.24-1.59-1.04-1.36-2.47-3.23-4.04-5.29-1.57-2.07-3.01-3.93-4.07-5.26-.53-.67-.97-1.2-1.27-1.57-.15-.17-.27-.31-.35-.42-.08-.09-.13-.14-.13-.14Z" style="fill: #455a64;"/>
          </g>
          <path d="M280.3,328.53s-.01.24-.16.59c-.15.35-.43.8-.86,1.2-.42.4-.89.65-1.25.78-.36.13-.59.15-.6.13-.02-.06.9-.28,1.71-1.05.82-.76,1.1-1.66,1.16-1.64Z" style="fill: #455a64;"/>
          <path d="M293.01,326.43s-.39.2-.9.13c-.51-.07-.86-.34-.83-.38.03-.05.39.12.86.18.47.07.86.02.87.07Z" style="fill: #455a64;"/>
          <path d="M286.38,331.55s.02.08.04.24c.02.18.05.41.09.71.07.64.17,1.53.3,2.64.24,2.27.57,5.41.94,8.99v-.04c.54.88,1.11,1.79,1.69,2.73,2.31,3.72,4.4,7.08,5.93,9.54.74,1.21,1.35,2.2,1.78,2.9.2.33.36.6.47.79.11.18.16.28.15.28,0,0-.07-.09-.19-.26-.13-.19-.29-.45-.51-.77-.44-.69-1.07-1.67-1.83-2.87-1.54-2.45-3.65-5.8-5.98-9.51-.58-.94-1.15-1.85-1.7-2.73v-.02s-.01-.02-.01-.02c-.35-3.59-.65-6.73-.88-9-.1-1.11-.18-2.01-.24-2.65-.02-.3-.04-.53-.06-.71-.01-.16-.01-.25,0-.25Z" style="fill: #455a64;"/>
        </g>
        <g>
          <path d="M284.59,299.17l3.68,1.18.28,7.79s1.98,9.13,2.4,10.3c.84,2.28,1.12,4.27,1.12,4.27,0,0-.71,5.17-5.87,5.78-5.16.61-9.97-2.36-9.97-2.36,0,0-1.72-7.7-3.3-14.61-1.5-6.58-.28-10.5-.28-10.5l5.66-2.03,6.28.18Z" style="fill: #455a64;"/>
          <rect x="283.98" y="303.71" width="3.4" height=".87" transform="translate(-34.47 36.52) rotate(-6.9)" style="fill: #fafafa;"/>
        </g>
        <g>
          <path d="M288.13,294.17c-.06-.38-.44-.67-.82-.64.38-.24.33-.9-.08-1.08.38-.53.25-1.36-.27-1.75l-3.88,5.35c.58.5,1.38.67,2.14.59s1.47-.39,2.14-.76c.17-.1.35-.21.43-.39.07-.18-.03-.44-.23-.45.37-.08.64-.48.58-.86Z" style="fill: #263238;"/>
          <path d="M278.5,291.27c-.15-.05-.32.01-.41.14s-.09.31,0,.43c-.23-.03-.47.07-.61.26-.14.19-.16.45-.06.66-.28,0-.56.05-.79.21s-.37.45-.31.72c.06.27.35.48.62.4-.12.24-.13.55.04.76.17.21.54.24.7.02-.14.2-.13.49.02.68.16.19.45.25.67.14-.06.25.05.53.27.66.21.13.52.11.71-.05l-.86-5.04Z" style="fill: #263238;"/>
          <g>
            <g>
              <g>
                <g>
                  <g>
                    <path d="M278.74,290.24l-.17,9.47c-.03,1.55,1.15,2.85,2.69,2.99h0c1.7.15,3.17-1.17,3.2-2.87.02-.9.03-1.64.03-1.64,0,0,2.31-.15,2.54-2.43.13-1.31.17-4.32.18-6.62,0-1.56-1.18-2.86-2.74-3l-1.38-.12c-2.38-.07-4.35,1.84-4.36,4.22Z" style="fill: #ffbe9d;"/>
                    <path d="M284.49,298.19s-1.44-.04-2.89-1.14c0,0,.59,1.72,2.88,1.72v-.58Z" style="fill: #eb996e;"/>
                  </g>
                  <g>
                    <g>
                      <path d="M286.57,291.45s-.27-.17-.62-.2c-.35-.04-.62.12-.66.08-.02-.02.03-.09.15-.17.12-.07.31-.13.53-.11.22.02.39.12.49.21.1.09.13.17.11.19Z" style="fill: #263238;"/>
                      <g>
                        <path d="M282.85,291.6c0,.17-.16.31-.34.3-.18,0-.32-.15-.31-.32,0-.17.16-.31.34-.3.18,0,.32.15.31.32Z" style="fill: #263238;"/>
                        <path d="M286.26,291.91c0,.17-.16.31-.34.3-.18,0-.32-.15-.31-.32,0-.17.16-.31.34-.3.18,0,.32.15.31.32Z" style="fill: #263238;"/>
                        <path d="M283.17,291.15s-.27-.17-.62-.2c-.35-.04-.62.12-.66.08-.02-.02.03-.09.15-.17.12-.07.31-.13.53-.11.22.02.39.12.49.21.1.09.13.17.11.19Z" style="fill: #263238;"/>
                      </g>
                      <path d="M284.21,293.86s.22-.04.58-.05c.09,0,.18-.01.2-.07.03-.06,0-.16-.04-.27-.06-.22-.13-.46-.2-.7-.28-1-.48-1.82-.44-1.83.04-.01.3.79.58,1.79.07.25.13.48.19.71.02.1.07.22.02.35-.03.06-.1.11-.16.12-.06.01-.11,0-.15,0-.36-.01-.58-.03-.58-.05Z" style="fill: #263238;"/>
                      <path d="M283.16,294.01c.06,0,.02.38.33.68.3.3.71.29.71.35,0,.02-.1.07-.27.06-.17,0-.41-.08-.59-.27-.18-.18-.25-.41-.25-.57,0-.16.05-.25.08-.25Z" style="fill: #263238;"/>
                    </g>
                    <path d="M283.36,290.02c-.04.09-.39.02-.8.03-.42,0-.76.1-.8,0-.02-.04.04-.13.19-.21.14-.08.36-.15.61-.15.25,0,.47.05.62.13.15.07.21.16.2.2Z" style="fill: #263238;"/>
                    <path d="M286.61,290.44c-.07.07-.3-.03-.59-.06-.29-.04-.54,0-.59-.08-.02-.04.02-.12.14-.18.11-.07.29-.11.49-.09.2.02.37.11.46.2.1.09.12.18.09.21Z" style="fill: #263238;"/>
                  </g>
                  <g>
                    <path d="M279.35,292.02s-1.52-.6-1.61.96c-.09,1.56,1.5,1.33,1.5,1.28,0-.04.11-2.24.11-2.24Z" style="fill: #ffbe9d;"/>
                    <path d="M278.8,293.65s-.03.02-.08.04c-.05.02-.12.03-.2,0-.16-.07-.29-.34-.28-.62,0-.14.04-.28.1-.39.05-.11.13-.19.22-.2.08-.01.14.04.16.08.02.04,0,.08.01.08,0,0,.04-.02.03-.09,0-.03-.02-.07-.06-.1-.04-.03-.09-.05-.15-.05-.12,0-.24.11-.3.23-.07.12-.11.27-.12.43,0,.32.14.62.36.7.11.03.2,0,.25-.03.05-.04.06-.07.06-.07Z" style="fill: #eb996e;"/>
                  </g>
                </g>
                <path d="M278.49,291.89c.24-.04.63.22.72.45.08.23.08.49.16.72.08.23.29.45.53.42.17-.02.3-.17.36-.33s.06-.33.05-.5c-.03-.74-.12-1.47-.08-2.21.04-.74.21-1.49.65-2.08.44-.59,1.19-.99,1.91-.86.48.08.9.37,1.38.48.56.13,1.18-.02,1.63-.39.06-.05.31-.19.31-.19,0-.04,0-.37-.12-.5-.88-.97-2.57-1.36-3.86-1.16-1.29.21-2.55.99-3.19,2.12-.65,1.13-.63,2.79-.44,4.01" style="fill: #263238;"/>
              </g>
              <path d="M287.49,288.75c-.25.46-.79.68-1.31.69s-1.02-.17-1.5-.36c-.48-.18-1.79-.52-2.31-.55-.08,0-.17-.01-.2-.08-.05-.09.05-.19.14-.24.73-.47,2.4-.65,3.26-.61s1.74.49,2.14,1.26" style="fill: #263238;"/>
              <path d="M287.27,288.79s-.61-.87-1.82-1.03c-1.76-.23-5.14.47-7.02,3.52,0,0-.27-1.33-.21-2.02.04-.46.56-3.2,3.48-3.81,0,0,4.42-1.25,5.58,3.35Z" style="fill: #455a64;"/>
              <path d="M278.72,290.7c1.01-1.28,2.33-2.29,3.78-3.03,1.45-.74,3.8-1.38,5.4-1.66.48-.08.98-.15,1.45-.02.47.13.91.49.99.97.1.6-1.03,1.42-1.56,1.74-.52.31-1.57.75-1.57.75,0,0,.11-1.09-1.62-1.47-2.36-.52-6.87,2.73-6.87,2.73Z" style="fill: #455a64;"/>
            </g>
            <path d="M289.65,286.06s-.17-.06-.5-.08c-.32-.02-.8,0-1.37.09-1.15.18-2.73.58-4.39,1.25-1.66.65-3.01,1.58-3.85,2.39-.42.4-.71.78-.88,1.06-.17.28-.24.45-.25.44,0,0,0-.05.03-.13.02-.08.08-.2.15-.35.15-.29.43-.7.85-1.12.83-.85,2.19-1.81,3.87-2.47,1.67-.67,3.27-1.05,4.44-1.2.59-.07,1.07-.07,1.4-.03.17.02.29.05.37.09.08.03.12.05.12.06Z" style="fill: #263238;"/>
            <path d="M284.02,286.66s.9-.4,1.78-.43c-.17-.15-.26-.22-.44-.32-.45.05-.91.12-1.39.33l.05.42Z" style="fill: #fafafa;"/>
          </g>
          <path d="M287.53,289.57c.14-.2.17-.47.06-.7-.1-.22-.33-.38-.58-.4.34-.1.49-.55.33-.86-.16-.31-.57-.45-.91-.35-.34.1-.6.39-.71.72-.14-.21-.4-.34-.65-.33-.26.01-.5.16-.62.39-.04-.2-.29-.3-.49-.25s-.36.18-.52.31c-.16.13-.34.25-.55.25l-.14.06c.21.36.71.51,1.09.33,0,.26.18.51.43.59s.54-.03.68-.25c.06.41.65.61.95.33.15.47.83.66,1.19.33.2.31.25.71.15,1.06.25-.06.46-.26.52-.52.06-.25-.03-.53-.23-.7Z" style="fill: #263238;"/>
          <path d="M281.01,289.19c-.53.25-1.07.51-1.55.85-.48.34-.9.79-1.14,1.33l.76.73c.21.07.38.14.55,0,.17-.14.26-.37.22-.59.21.06.46-.01.6-.18s.17-.42.07-.62c.15-.04.28-.16.32-.31s0-.32-.11-.43c.18,0,.35-.13.41-.29.06-.17,0-.37-.13-.49Z" style="fill: #263238;"/>
        </g>
        <g>
          <g>
            <path d="M288.27,300.35s2.28,1.37,2.96,2.58c.68,1.22,4.33,10.1,4.18,11.54-.15,1.44-3.57,2.35-3.57,2.35l-3.57-4.63,1.63-.97-1.63-3.13v-7.75Z" style="fill: #455a64;"/>
            <path d="M291.84,316.84s-8.27,1.65-11.28-1.91l.87-3.02s5.47,1.29,7.17.74l3.23,4.19Z" style="fill: #ffbe9d;"/>
            <path d="M292.7,309.49c.03.06-.97.48-2.01,1.28-1.04.8-1.7,1.66-1.76,1.62-.02-.02.12-.25.4-.58.28-.34.7-.78,1.23-1.19.53-.41,1.07-.7,1.47-.88.4-.18.66-.26.67-.24Z" style="fill: #263238;"/>
            <path d="M290.04,311.12c-.05.02-.36-.65-.74-1.48-.38-.82-.73-1.48-.68-1.51.05-.03.47.59.86,1.42.38.83.61,1.54.56,1.56Z" style="fill: #263238;"/>
          </g>
          <path d="M288.54,307.4s-.06-.58-.2-1.29c-.15-.7-.3-1.27-.33-1.26-.04,0,.06.58.2,1.29.15.7.3,1.27.33,1.26Z" style="fill: #263238;"/>
        </g>
        <g>
          <g>
            <g>
              <path d="M273.69,301.49c.16.16,2.43,1.67,3.19,4.25.76,2.58,1.59,5.24,1.59,5.24l2.96.38-1.67,6.84s-3.57-.38-5.54-3.65c-1.97-3.27-3.19-7.29-3.19-7.29,0,0,.25-8.28,2.66-5.77Z" style="fill: #455a64;"/>
              <g>
                <path d="M280.42,311.24s-1.26-2.81-1.43-2.85c-.17-.04-2.59-.89-2.59-.89,0,0-.13.33,0,.61l-.87.11s.13.54.43.61l-.32.28s.26.36.59.5c.33.15.57,0,.57,0,0,0-.11.2.39.52.5.32,1.35.78,1.35.78l1.87.33Z" style="fill: #ffbe9d;"/>
                <path d="M278.55,310.91h0s-.86-.47-1.35-.78c-.43-.27-.41-.45-.4-.51-.06.03-.28.12-.56,0-.33-.15-.59-.5-.6-.5h0s.31-.28.31-.28c-.29-.08-.41-.59-.42-.61h0s.87-.12.87-.12c-.12-.28,0-.61,0-.61h0s0,0,0,0c.02,0,2.43.85,2.59.89.17.04,1.38,2.74,1.43,2.85h0s-1.88-.32-1.88-.32ZM276.4,308.11h0s-.87.12-.87.12c.02.06.15.53.42.6h.01s-.32.28-.32.28c.03.04.28.36.59.5.33.14.57,0,.57,0h.02s-.01,0-.01,0c0,0-.1.2.39.51.49.31,1.32.76,1.35.78l1.86.33c-.44-.97-1.29-2.81-1.42-2.84-.16-.04-2.46-.84-2.59-.89-.02.05-.12.35,0,.6Z" style="fill: #eb996e;"/>
              </g>
              <path d="M276.48,308.12s.7.31,1.59.62c.22.08.44.14.62.22.18.08.29.22.36.35.14.26.2.45.22.44.01,0,0-.2-.14-.49-.07-.14-.19-.31-.39-.41-.19-.1-.41-.16-.63-.24-.89-.31-1.62-.53-1.63-.49Z" style="fill: #eb996e;"/>
              <path d="M275.91,308.83s.16.09.44.16c.28.08.67.14,1.09.25.42.11.77.29.98.46.22.17.32.32.34.31.01,0-.06-.18-.28-.38-.21-.2-.58-.4-1.01-.52-.43-.12-.82-.16-1.1-.21-.28-.05-.45-.09-.46-.07Z" style="fill: #eb996e;"/>
              <path d="M278.13,310.11s-.21-.26-.58-.39c-.38-.14-.7-.1-.7-.06,0,.04.31.06.66.19.35.12.6.3.63.27Z" style="fill: #eb996e;"/>
              <path d="M281.18,312.1l7.46-3.77,1.37,2.79s-6.88,6.82-10.11,6.73" style="fill: #ffbe9d;"/>
              <path d="M276.64,304.2s.02.21.1.55c.08.34.2.8.33,1.31.14.51.27.97.37,1.3.1.33.17.53.19.53s-.02-.22-.1-.55c-.08-.34-.2-.8-.33-1.31-.14-.51-.27-.97-.37-1.3-.1-.33-.17-.53-.19-.53Z" style="fill: #263238;"/>
              <path d="M276.96,313.47s.09-.34.26-.88c.09-.26.22-.58.45-.86.22-.28.56-.55.97-.61.41-.06.82.07,1.18.14.36.07.69.14.98.19.14.03.26.05.36.09.1.04.16.11.18.18.05.14-.02.22-.01.22,0,.01.1-.06.06-.24-.02-.08-.09-.18-.2-.23-.11-.06-.24-.09-.37-.12-.29-.07-.62-.14-.97-.22-.36-.07-.77-.21-1.23-.15-.46.07-.81.36-1.04.67-.24.31-.36.64-.44.91-.08.28-.12.5-.15.66-.03.16-.03.24-.03.25Z" style="fill: #263238;"/>
              <path d="M275.95,311.97s.23-.54.81-.93c.56-.4,1.15-.46,1.14-.5,0-.02-.15-.02-.38.03-.23.05-.54.16-.84.37-.3.21-.5.47-.61.68-.11.21-.14.35-.12.36Z" style="fill: #263238;"/>
              <path d="M271.03,307.27s0,.05.04.15c.04.11.08.24.14.41.13.37.3.88.52,1.5.22.63.48,1.39.85,2.2.39.8.81,1.68,1.33,2.56.53.88,1.18,1.64,1.86,2.21.68.58,1.38.99,2,1.25.62.26,1.16.38,1.53.43.19.02.33.04.43.04.1,0,.15,0,.15,0,0-.01-.21-.02-.57-.09-.37-.06-.89-.2-1.5-.47-1.21-.53-2.75-1.68-3.79-3.44-.52-.87-.94-1.75-1.33-2.54-.37-.8-.64-1.55-.87-2.18-.23-.63-.42-1.14-.55-1.49-.07-.16-.12-.3-.16-.4-.04-.09-.06-.14-.06-.14Z" style="fill: #263238;"/>
              <path d="M273.17,301.67s.57.25,1.22.63c.65.38,1.12.79,1.14.76.02-.02-.41-.49-1.08-.88-.67-.4-1.28-.55-1.29-.52Z" style="fill: #263238;"/>
            </g>
            <path d="M278.84,319.82s.13.08.38.19c.12.06.28.13.46.2.18.07.39.16.62.24.46.17,1.03.33,1.67.48.64.14,1.35.26,2.1.33.75.06,1.47.07,2.12.04.65-.04,1.24-.1,1.72-.18.24-.03.46-.09.65-.12.19-.04.36-.08.49-.12.27-.07.41-.11.41-.12,0,0-.15.02-.42.07-.13.03-.3.06-.49.09-.19.03-.41.08-.65.1-.49.07-1.07.13-1.72.15-.65.02-1.36.01-2.11-.05-.75-.07-1.45-.18-2.08-.32-.63-.14-1.2-.3-1.66-.45-.24-.07-.44-.15-.63-.22-.18-.06-.34-.13-.47-.18-.26-.1-.4-.15-.4-.15Z" style="fill: #263238;"/>
            <path d="M284.9,323.7s.69-.1,1.51-.38c.82-.27,1.45-.57,1.44-.61-.01-.03-.67.21-1.48.48-.81.27-1.48.47-1.47.5Z" style="fill: #263238;"/>
            <g style="opacity: .3;">
              <path d="M290.6,317.04c-1.76.28-3.42.42-5.18.08-.63-.12-1.27-.33-1.91-.23-.53.08-1,.36-1.48.56-1.76.74-3.89.52-5.46-.57.5,1.09,1.65,1.78,2.83,1.98,1.18.2,2.39,0,3.55-.32.69-.18,1.39-.4,2.1-.42.91-.03,1.8.27,2.71.29,1,.02,2.16-.27,2.95-.89l-.1-.49Z"/>
            </g>
            <g style="opacity: .3;">
              <path d="M287.65,322.97c-.76,1.28-2.15,2.17-3.64,2.3-.32.03-.65.02-.96-.08-.31-.1-.59-.31-.72-.6.33-.24.73-.36,1.13-.47,1.38-.38,2.76-.76,4.15-1.14"/>
            </g>
          </g>
          <path d="M289.9,311.23s-.11.13-.33.35c-.22.21-.55.52-.93.92-.38.39-.84.88-1.39,1.36-.55.48-1.18.98-1.85,1.5-.67.51-1.33.98-1.97,1.35-.63.37-1.24.64-1.77.82-.53.18-.97.26-1.28.31-.31.03-.48.04-.48.03,0-.04.68-.09,1.71-.47.51-.19,1.1-.47,1.72-.85.62-.37,1.27-.84,1.94-1.35.66-.52,1.3-1.01,1.85-1.48.56-.47,1.01-.94,1.41-1.32.4-.38.74-.68.98-.87.24-.2.38-.3.39-.29Z" style="fill: #eb996e;"/>
        </g>
      </g>
    </g>
  </g>
</svg>