<?xml version="1.0" encoding="UTF-8"?>
<svg xmlns="http://www.w3.org/2000/svg" version="1.1" xmlns:xlink="http://www.w3.org/1999/xlink" viewBox="0 0 3710 3710">
  <defs>
    <linearGradient id="linear-gradient" x1="3618.8" y1="4081.41" x2="1127.32" y2="987.16" gradientUnits="userSpaceOnUse">
      <stop offset="0" stop-color="#dae3fe"/>
      <stop offset="1" stop-color="#e9effd"/>
    </linearGradient>
    <linearGradient id="linear-gradient-2" x1="-3076.77" y1="-6703.19" x2="-2835" y2="-7760.94" gradientTransform="translate(-2772.22) rotate(-180) scale(1 -1)" gradientUnits="userSpaceOnUse">
      <stop offset="0" stop-color="#edfefd"/>
      <stop offset="1" stop-color="#cafffd"/>
    </linearGradient>
    <linearGradient id="linear-gradient-3" x1="-2974.66" y1="-6679.83" x2="-2732.89" y2="-7737.58" xlink:href="#linear-gradient-2"/>
    <linearGradient id="linear-gradient-4" x1="-1750.59" y1="-6400.05" x2="-1508.81" y2="-7457.8" xlink:href="#linear-gradient-2"/>
    <linearGradient id="linear-gradient-5" x1="1765.32" y1="2178.64" x2="1963.77" y2="2630.14" gradientTransform="translate(214.21 -113.52) rotate(-12.16)" gradientUnits="userSpaceOnUse">
      <stop offset="0" stop-color="#febbba"/>
      <stop offset="1" stop-color="#ff928e"/>
    </linearGradient>
    <linearGradient id="linear-gradient-6" x1="2194.55" y1="3523.45" x2="2325.63" y2="1991.46" gradientTransform="translate(464.63)" xlink:href="#linear-gradient-5"/>
    <linearGradient id="linear-gradient-7" x1="2458.22" y1="3546.24" x2="2589.33" y2="2013.85" gradientTransform="translate(464.63)" xlink:href="#linear-gradient-5"/>
    <linearGradient id="linear-gradient-8" x1="2180.17" y1="2013.36" x2="2204.8" y2="1833.23" gradientTransform="translate(464.63)" xlink:href="#linear-gradient-5"/>
    <linearGradient id="linear-gradient-9" x1="1952.07" y1="2319.26" x2="2166.92" y2="1936.91" gradientTransform="translate(235.54 -99.24) rotate(-11.2)" xlink:href="#linear-gradient-5"/>
    <linearGradient id="linear-gradient-10" x1="1726.11" y1="2195.87" x2="1924.55" y2="2647.38" xlink:href="#linear-gradient-5"/>
    <linearGradient id="linear-gradient-11" x1="-2984.92" y1="1524.02" x2="-2931.92" y2="1524.02" gradientTransform="translate(-700.81) rotate(-180) scale(1 -1)" xlink:href="#linear-gradient-5"/>
    <linearGradient id="linear-gradient-12" x1="-3862.22" y1="2152.57" x2="-3424.94" y2="2152.57" gradientTransform="translate(-700.81) rotate(-180) scale(1 -1)" xlink:href="#linear-gradient-5"/>
  </defs>
  <!-- Generator: Adobe Illustrator 28.7.3, SVG Export Plug-In . SVG Version: 1.2.0 Build 164)  -->
  <g style="isolation: isolate;">
    <g id="Background">
      <rect width="3710" height="3710" style="fill: #fff;"/>
    </g>
    <g id="Illustration">
      <g>
        <path d="M2933.38,2861.15c-57.23,60.25-111.38,99.1-154.16,129.8-502.89,360.83-1097.95,255.65-1224.41,229.96-186.75-37.93-547.74-111.25-808.72-418.16-394.85-464.34-333.37-1195.88-27.09-1678.79,56.02-88.33,351.95-578.59,953.41-657.21,364-47.58,788.31,48.38,1095.58,305.82,644.99,540.37,599.07,1632.02,165.4,2088.58Z" style="fill: url(#linear-gradient);"/>
        <g>
          <ellipse cx="1817.31" cy="1713.83" rx="1342.49" ry="1243.74" transform="translate(-73.42 81.35) rotate(-2.51)" style="fill: #57ccf2; opacity: .12;"/>
          <path d="M2830.06,889.84c29.47,47.31,52.19,100.56,47.92,156.13-4.94,64.34-37.51,124.6-39.18,189.11-2.83,109.41,81.63,200.99,107.97,307.22,29.45,118.73-81.58,254.02-125.82,320.29-44.24,66.27-25.23-53.77-52.05-100.58-26.83-46.81-84.67,196.97-175.02,250.47-48.48,28.71-105.35,47.81-140.21,92.07-50.85,64.54-36.76,156.39-29.13,238.2,7.63,81.81-3.8,181.52-77.48,217.89-43.38,21.41-98.53,14.17-137.68,42.59-68.75,49.92-35.91,158.76-63.16,239.24-29.63,87.52-88.37,88.67-179.27,107.23-90.89,18.55,11.45-181.13-31.13-250.92-22.38-36.68-56.55-65.87-74.2-105.05-24.48-54.33-17.58-126.93-65.07-162.93-35.6-26.99-85.13-19.69-129.8-20.08-44.67-.39-99-19.78-104.07-64.16-4.5-39.38,34.93-70.78,73.5-79.91,38.57-9.13,79.67-4.77,117.55-16.44,108.35-33.36,158.89-184.98,272.03-192.08,96.72-6.06,177.73,102.5,272.76,83.54,52.98-10.57,89.24-57.49,128.57-94.53,50.52-47.58,113.22-83.3,153.33-139.93,40.11-56.64,46.93-147.17-10.13-186.67-42.39-29.35-102.61-17.43-144.48,12.64-41.87,30.07-70.39,74.69-101.15,116.07-9.5,12.78-20.25,26.02-35.44,30.78-40.89,12.8-70.73-44.73-60.94-86.44,9.78-41.71,39.25-78.4,40.64-121.23,2.44-75.47-78.84-123.36-150.14-148.23-71.3-24.87-155.34-54.52-176.3-127.06-7.4-25.63-5.46-53.82-16.76-77.98-37.45-80.07-235.07-120.05-187.83-166.48,47.24-46.43,197.17-56.52,226.36-150.03,10.45-33.48,21.21-77.73,56.13-80.96,56.88-5.27,89.34,65.13,137.05,77.22,22.65,5.74,24.83,44.21,23.95,91.51-.64,34.34,26.67,62.7,61.01,63.34,34.34.65,62.71-26.66,63.36-60.99.24-12.75-1.99-25.63-7.23-38.48-9.19-22.52-26.63-40.52-44.22-57.31-73.38-70.07-292.35-147.05-246.5-176.88,45.85-29.83,265.92-112.13,298.75-66.71,32.83,45.42-21.47,6.96-34.71,60.83-13.24,53.87,162.79,46.65,244.19,69.97,13.44,3.85,28.35,7.6,40.93,1.51,14.06-6.81,19.99-23.18,27.62-36.82,40.88-73.03,176.85-25.63,176.85-25.63,0,0,42.29,24.4,68.62,66.66Z" style="fill: url(#linear-gradient-2);"/>
          <path d="M2215.07,558.41c19.76,36.84-39.01,36.25-44.86,77.64-52.91,5.77-74.64-77.65-126.96-87.39-29.53-5.49-58.16,15.66-74.21,41.05-16.05,25.39-23.53,55.2-37.13,81.98-30.47,60-93.4,102.23-160.47,107.7-14.59,1.19-30.68.26-41.66-9.42-31.89-28.1,13.73-80.89,1.88-121.71-13.54-46.64-80.8-39.57-126.26-56.67-12.54-4.72-108.97-30.45-110.52-43.76-2.75-23.59,41.99-38.61,92.03-51.48,84.79-21.8,233.99-20.9,306.91-14.3,97.02,8.78,258.67,1.69,321.24,76.35h0Z" style="fill: url(#linear-gradient-3);"/>
          <path d="M597.08,2142.9c-21.98-137.62-20.16-279.02,5.38-416.03,6.81-36.55,22.76-80.12,59.57-85.38,42.57-6.08,94.69,42.82,121.34,9.07,11.76-14.9,7.07-36.59.41-54.36-17.57-46.88-45.09-90-80.19-125.69-21.81-22.17-46.76-41.83-63.55-68.01-35.92-55.99-10.7-137.8,40.13-180.71,50.83-42.9,116.41,34.03,169.85,3.49,53.44-30.54,55.1-104.63,65.14-165.35,7.44-44.98,40.58-166.84,77.19-107.49,36.61,59.35-48.83,295.59-144.99,408.84-11.6,13.66-24.41,28.96-23.43,46.85,2.34,42.73,64.6,40.83,106.49,49.58,51.85,10.83,131.32-16.94,87.46,73.41-23.13,47.65-133.62,112.87-103.93,144.76,29.69,31.89,120.96,124.26,163.78,198.96,42.83,74.7,63.58,167.72,31.29,247.54-32.29,79.82-129.4,134.94-208.67,101.31-37.1-15.74-77.54-48.46-112.03-27.61-31.23,18.88-26.62,64.21-25.08,100.67,1.54,36.46-19.47,84.87-54.95,76.3-11.67-2.82-20.85-11.67-28.74-20.73-49.91-57.36-70.47-134.34-82.47-209.43Z" style="fill: url(#linear-gradient-4);"/>
          <ellipse cx="1911.45" cy="1655.26" rx="1053.44" ry="995.16" style="fill: #fff; opacity: .12;"/>
          <g style="opacity: .68;">
            <path d="M1455.61,1735.18c-.03,109.36,3.84,218.75,12.21,327.78,8.29,109.02,20.78,217.79,39.5,325.49,9.36,53.85,20.27,107.43,33.34,160.47,13.1,53.02,28.29,105.56,46.93,156.84,9.35,25.62,19.57,50.92,31.08,75.61,11.51,24.67,24.3,48.77,39.1,71.52,14.85,22.65,31.68,44.23,52.12,61.74,10.21,8.7,21.34,16.35,33.43,21.91,12.07,5.52,25.09,9,38.31,9.33,13.22.44,26.41-2.32,38.69-7.33,12.32-4.99,23.7-12.27,34.14-20.67,20.89-16.93,38.1-38.25,53.21-60.71,15.09-22.56,28.03-46.57,39.74-71.15,11.66-24.61,22.04-49.85,31.49-75.43,18.89-51.19,34.25-103.68,47.48-156.67,13.21-53.01,24.25-106.56,33.71-160.39,18.87-107.68,31.51-216.43,39.79-325.45,8.22-109.04,11.96-218.42,11.76-327.76.18-109.36-2.44-218.76-9.51-327.91-7.03-109.14-18.05-218.06-34.95-326.11-8.48-54.01-18.46-107.79-30.57-161.09-12.14-53.28-26.32-106.13-44.03-157.8-8.9-25.81-18.65-51.33-29.79-76.23-11.12-24.89-23.59-49.21-38.24-72.16-14.67-22.84-31.56-44.57-52.42-61.86-10.43-8.57-21.87-16-34.34-21.04-12.43-5.1-25.85-7.78-39.28-7.34-13.44.36-26.66,3.94-38.92,9.45-12.28,5.57-23.62,13.13-34.06,21.73-20.89,17.3-38.28,38.56-53.7,60.94-15.37,22.47-28.78,46.29-40.88,70.73-12.12,24.44-22.91,49.54-32.85,74.96-19.8,50.9-36.07,103.15-50.18,155.93-14.06,52.81-25.88,106.22-36.05,159.93-20.33,107.44-34.03,216.07-43.08,325.04-9.14,108.97-13.34,218.34-13.19,327.69ZM1442.9,1735.18c.56-219.3,17.67-439.05,59.83-654.49,10.66-53.81,22.99-107.32,37.56-160.22,14.62-52.89,31.42-105.23,51.77-156.25,10.22-25.49,21.29-50.65,33.72-75.17,12.4-24.52,26.13-48.43,41.88-71.03,15.8-22.5,33.61-43.93,55.11-61.44,10.75-8.7,22.45-16.37,35.19-22.02,12.71-5.61,26.48-9.13,40.46-9.52,13.96-.52,27.99,2.12,40.93,7.31,12.99,5.13,24.85,12.7,35.62,21.4,21.54,17.56,38.86,39.5,53.93,62.5,15.03,23.1,27.82,47.55,39.25,72.54,11.44,25,21.48,50.6,30.65,76.48,18.25,51.81,32.95,104.77,45.6,158.16,12.61,53.41,23.08,107.29,32.06,161.4,17.88,108.24,29.87,217.39,37.85,326.77,3.97,54.7,6.92,109.47,8.91,164.27,1.91,54.8,3.26,109.64,3.04,164.49-.46,109.7-4.88,219.39-13.78,328.73-8.97,109.32-22.3,218.35-41.9,326.33-9.82,53.98-21.23,107.7-34.83,160.88-13.63,53.17-29.38,105.87-48.72,157.34-9.68,25.72-20.3,51.12-32.24,75.93-11.99,24.77-25.24,49.02-40.75,71.91-15.54,22.78-33.24,44.52-55.08,62.01-10.92,8.68-22.9,16.26-36.02,21.49-13.07,5.27-27.28,8.07-41.47,7.65-14.2-.26-28.2-3.92-41.02-9.7-12.85-5.82-24.55-13.77-35.21-22.74-21.33-18.06-38.65-40.05-53.92-63.01-15.21-23.07-28.3-47.39-40.1-72.26-11.79-24.88-22.26-50.34-31.84-76.1-19.1-51.55-34.7-104.29-48.21-157.5-13.46-53.22-24.76-106.96-34.49-160.96-38.44-216.17-53.42-435.89-53.74-655.16Z" style="fill: #fff; mix-blend-mode: soft-light;"/>
            <path d="M904.35,1735.18c.08,69.93,4.32,139.88,13.48,209.23,9.18,69.33,22.89,138.07,41.46,205.49,37.16,134.74,93.22,264.76,170.3,381.6,38.51,58.36,82.25,113.35,131.22,163.29,48.98,49.88,103.11,94.89,162.19,132.35,59.1,37.34,122.92,67.35,189.8,87.78,66.9,20.27,136.73,30.86,206.66,31.02,69.93-.21,139.75-10.85,206.62-31.16,66.85-20.47,130.63-50.52,189.69-87.89,59.04-37.48,113.1-82.53,162.02-132.42,48.91-49.96,92.57-104.95,131.02-163.32,76.95-116.83,132.92-246.81,169.94-381.5,36.89-134.84,54.8-274.7,54.84-414.47.03-139.77-17.81-279.64-54.63-414.53-36.95-134.73-92.84-264.78-169.75-381.7-38.43-58.41-82.09-113.45-131-163.46-48.91-49.95-103.01-95.03-162.06-132.61-59.07-37.45-122.86-67.67-189.8-88.15-66.97-20.29-136.87-30.9-206.88-31.05-70,.11-139.92,10.67-206.92,30.92-66.97,20.43-130.81,50.61-189.92,88.03-59.1,37.54-113.26,82.59-162.24,132.53-48.98,49.99-92.71,105.03-131.21,163.43-77.04,116.94-133.02,247.03-170.11,381.81-18.54,67.44-32.22,136.2-41.36,205.54-9.12,69.35-13.32,139.31-13.37,209.24ZM889.78,1735.18c.3-70.56,4.79-141.12,14.25-211.06,9.47-69.92,23.52-139.23,42.47-207.21,38.27-135.76,96.06-266.41,174.65-383.66,39.29-58.57,83.82-113.68,133.59-163.67,49.75-49.97,104.78-94.79,164.49-132.31,59.72-37.47,124.22-67.45,191.72-87.91,67.52-20.32,137.99-30.88,208.5-30.92,70.52-.02,141,10.5,208.55,30.78,67.53,20.41,132.07,50.35,191.84,87.79,59.77,37.5,114.86,82.28,164.67,132.23,49.83,49.97,94.43,105.08,133.79,163.64,78.72,117.26,136.6,247.96,175.02,383.77,19.02,68,33.23,137.33,42.7,207.31,9.42,69.99,13.87,140.61,14.12,211.21-.22,70.6-4.63,141.22-14.02,211.22-9.43,69.98-23.59,139.33-42.58,207.36-38.34,135.86-96.15,266.62-174.83,383.98-39.35,58.61-83.94,113.77-133.78,163.78-49.81,50.02-104.94,94.83-164.71,132.42-59.78,37.51-124.34,67.62-191.96,88.05-67.64,20.26-138.21,30.74-208.8,30.67-70.59.02-141.15-10.51-208.76-30.82-67.59-20.46-132.1-50.61-191.84-88.16-59.73-37.62-114.79-82.46-164.53-132.49-49.77-50.04-94.3-105.2-133.58-163.81-78.55-117.35-136.27-248.06-174.47-383.87-18.92-68-32.93-137.33-42.37-207.26-9.42-69.94-13.88-140.51-14.14-211.07Z" style="fill: #fff; mix-blend-mode: soft-light;"/>
            <path d="M2906.69,1255.23l-279.8,1.76-279.8,1.01-559.61.81-559.61-.89-279.8-1.1-279.8-1.91c-.35,0-.64-.29-.64-.65,0-.35.29-.64.64-.64l279.8-1.91,279.8-1.1,559.61-.89,559.61.81,279.8,1.01,279.8,1.76c.53,0,.96.44.95.96,0,.52-.43.95-.95.95Z" style="fill: #fff; mix-blend-mode: soft-light;"/>
            <path d="M2582.09,786.59l-198.65,1.77-198.65,1c-66.22.43-132.44.38-198.65.51l-198.65.3-397.3-.89-198.65-1.1-198.65-1.91c-.36,0-.64-.29-.64-.65,0-.35.29-.63.64-.64l198.65-1.91,198.65-1.09,397.3-.89,198.65.3c66.22.13,132.43.09,198.65.51l198.65,1,198.65,1.77c.53,0,.95.44.95.97,0,.52-.43.94-.95.95Z" style="fill: #fff; mix-blend-mode: soft-light;"/>
            <path d="M3003.93,1723.88l-304.11,1.76-304.11,1.01-608.22.81-608.22-.89-304.11-1.1-304.11-1.91c-.36,0-.64-.29-.64-.65,0-.35.29-.64.64-.64l304.11-1.91,304.11-1.1,608.22-.89,608.22.81,304.11,1.01,304.11,1.76c.53,0,.96.44.95.96,0,.52-.43.95-.95.95Z" style="fill: #fff; mix-blend-mode: soft-light;"/>
            <path d="M2906.69,2192.53l-279.8,1.76-279.8,1.01-559.61.81-559.61-.89-279.8-1.1-279.8-1.91c-.35,0-.64-.29-.64-.65,0-.35.29-.64.64-.64l279.8-1.91,279.8-1.1,559.61-.89,559.61.81,279.8,1.01,279.8,1.76c.53,0,.96.43.95.96,0,.52-.43.95-.95.95Z" style="fill: #fff; mix-blend-mode: soft-light;"/>
            <path d="M2542.05,2663.57H952.83c-1.86,0-3.36-1.5-3.36-3.36s1.5-3.36,3.36-3.36h1589.21c1.86,0,3.36,1.5,3.36,3.36s-1.5,3.36-3.36,3.36Z" style="fill: #fff; mix-blend-mode: soft-light;"/>
          </g>
        </g>
        <g>
          <path d="M3158.73,2237.74c21.49-193.58-57.29-411.67-100.35-613.75-22.77-106.84-35.58-213.26-22.65-322.34,12.86-108.45,58.82-227.03,7.83-332.52-102.74-212.52-322.43-105.13-444,62.84-141.08,194.91-169.33,505.31-216.26,745.34-28.29,144.7-73.67,293.77-85.77,440.55-20.04,243.16,41.4,408.95,161.69,517.76,115.38,104.36,285.36,120.15,418.14,39.07,119.95-73.24,246.69-224.66,281.36-536.95Z" style="fill: #004300;"/>
          <path d="M2680.4,3148.49c-1.5-.68-2.67-2.05-3.03-3.78-21.01-100.13-64.45-375.06-78.45-698.88-10.28-237.7-3.99-467.48,18.69-682.97,28.36-269.45,82.58-517.2,161.15-736.35,1-2.79,4.08-4.24,6.87-3.24,2.82.98,4.25,4.07,3.24,6.87-78.27,218.31-132.29,465.17-160.57,733.72-22.63,214.93-28.91,444.15-18.66,681.3,13.96,323.16,57.28,597.46,78.24,697.35.61,2.9-1.25,5.75-4.15,6.36-1.16.24-2.32.09-3.33-.37Z" style="fill: #b2d24a;"/>
        </g>
        <path d="M464.98,3169.99c381.83-284.21,1809.89-325.7,2427.45,15.38,28.78,15.9,7,41.96-35.01,41.85l-2340.93-5.8c-50.77-.13-80.56-29.8-51.51-51.42Z" style="fill: #ccc;"/>
        <path d="M1942.02,2189.08c-.7-1.34-2.09-2.2-3.61-2.2h-165.46c-1.26,0-2.45-.56-3.22-1.56-.77-.99-1.04-2.28-.73-3.5l69.23-270.05c.48-1.88-.43-3.84-2.19-4.68-1.75-.84-3.86-.32-5.02,1.24l-295.14,395.73c-.92,1.23-1.07,3.15-.38,4.53.69,1.38,2.1,2.51,3.64,2.51h151.8c1.22,0,2.38.28,3.15,1.23.77.94,1.08,2.05.84,3.25l-63,312.79c-.38,1.9.62,3.76,2.4,4.52,1.78.76,3.84.14,4.94-1.45l302.48-438.14c.86-1.25.96-2.88.25-4.22Z" style="fill: #fff; opacity: .8;"/>
        <path d="M717.77,1196.9c-38.78,10.4-77.66,28.21-92.57,49.38-67.25,95.5,36,227.77,71.52,315.55,61.01,150.8,81.2,315.2,36.34,472.92-48.61,170.9-79.18,339.14-56.51,514.25,11.68,90.21,41.17,185.9,109.76,257.78,129.62,135.79,464.72,59.73,531.12-93.38,52.95-122.11,34.96-254.74-.55-376.51-59.73-204.84-158.68-399.14-219.97-603.55-46.87-156.3-21.6-468-240.51-535.91-40.03-12.42-97.48-11.57-138.62-.54Z" style="fill: #004300;"/>
        <path d="M1007.55,3128.27c-1.11.06-2.26-.06-3.39-.38-5.41-1.55-8.54-7.19-6.99-12.6,151.51-529.25,73.54-1004.3-18.54-1309.62-99.87-331.14-237.44-539.69-238.82-541.76-3.12-4.68-1.85-11.01,2.83-14.13,4.68-3.13,11-1.86,14.13,2.82,1.39,2.09,140.37,212.65,241.16,546.48,93.02,308.09,171.79,787.51,18.83,1321.82-1.22,4.28-5.01,7.13-9.21,7.37Z" style="fill: #b2d24a;"/>
        <g>
          <path d="M2492,934.58v2098.37c0,57.14-46.43,100.77-105.59,100.77h-845.94c-59.16,0-109.47-43.63-109.47-100.77V934.58c0-57.14,50.31-104.18,109.47-104.18h845.94c59.16,0,105.59,47.04,105.59,104.18Z"/>
          <path d="M2211.07,706.17h-498.03c-25.18,0-50.37,23.59-50.37,50.74v73.5h587.58v-73.5c0-27.15-14-50.74-39.18-50.74Z"/>
        </g>
        <path d="M2375.81,1004.47c0-32.42-26.51-58.05-58.67-58.05h-720.37c-32.16,0-58.99,25.63-58.99,58.05v1904.29c0,32.42,26.82,56.71,58.99,56.71h720.37c32.16,0,58.67-24.29,58.67-56.71V1004.47Z" style="fill: #b2d24a;"/>
        <path d="M2186.18,2174.57c-.74-1.76-2.21-4.48-3.82-4.48h-175.16c-1.33,0-2.59.86-3.41-.44-.82-1.3-1.1-2.19-.77-3.78l73.29-353.4c.51-2.47-.46-4.84-2.32-5.94-1.86-1.1-4.08-.32-5.31,1.73l-312.43,518.52c-.97,1.62-1.13,3.43-.4,5.24.73,1.8,2.22,2.6,3.85,2.6h160.69c1.29,0,2.52,1.09,3.34,2.32.82,1.24,1.15,3.05.89,4.62l-66.7,409.97c-.4,2.48.66,5.02,2.54,6.01,1.88.99,4.07.23,5.23-1.86l320.2-574.8c.91-1.63,1.01-4.56.27-6.31Z"/>
        <g>
          <g>
            <g>
              <path d="M1710.27,1242.24c.83,1.52,2.14,2.8,3.83,3.59,4.25,2,9.31.17,11.31-4.08,2.91-6.18,6.09-12.34,9.46-18.3,2.31-4.09.87-9.27-3.22-11.59-4.08-2.31-9.27-.87-11.59,3.22-3.58,6.33-6.96,12.87-10.05,19.44-1.2,2.56-1.02,5.41.25,7.72Z" style="fill: #fff;"/>
              <path d="M1716,1496.62c-7.04-13.32-13.09-27.29-17.99-41.51-1.53-4.44.83-9.28,5.27-10.81,4.44-1.53,9.32.8,10.81,5.27,4.62,13.39,10.32,26.55,16.96,39.1,2.19,4.15.6,9.29-3.55,11.49-4.11,2.17-9.19.64-11.42-3.42-.02-.04-.05-.08-.07-.13ZM1741.89,1522.98c3.77-2.8,9.09-2.02,11.9,1.75,8.46,11.38,17.88,22.2,27.98,32.16,3.37,3.31,3.39,8.68.09,12.02-3.3,3.35-8.68,3.39-12.02.09-10.73-10.57-20.72-22.05-29.7-34.12-.24-.32-.45-.65-.63-.99-2.01-3.66-1.07-8.34,2.38-10.91ZM1686.62,1411.31c-2.65-14.81-4.16-29.96-4.48-45.03-.1-4.69,3.62-8.58,8.32-8.68,4.69-.1,8.58,3.61,8.68,8.32.3,14.19,1.72,28.46,4.22,42.4.83,4.62-2.25,9.04-6.87,9.86-3.69.66-7.24-1.16-8.95-4.27-.43-.79-.75-1.66-.91-2.6ZM1802.47,1586.31c2.74-3.81,8.05-4.68,11.87-1.93,11.5,8.28,23.75,15.72,36.4,22.12,4.19,2.13,5.87,7.24,3.75,11.43-2.12,4.19-7.23,5.87-11.43,3.75-13.43-6.8-26.44-14.71-38.66-23.5-1.06-.76-1.89-1.72-2.48-2.8-1.53-2.78-1.43-6.32.55-9.07ZM1684.65,1321.11c.37-2.76.77-5.53,1.22-8.29,1.96-12.14,4.7-24.25,8.13-35.99,1.32-4.51,6.04-7.09,10.55-5.78,4.51,1.33,7.1,6.05,5.78,10.55-3.24,11.07-5.82,22.48-7.66,33.93-.42,2.6-.8,5.2-1.15,7.8-.62,4.65-4.89,7.93-9.54,7.32-2.79-.37-5.08-2.05-6.34-4.34-.84-1.53-1.22-3.34-.97-5.2ZM1879.41,1628.19c1.45-4.47,6.24-6.91,10.71-5.47,13.44,4.35,27.38,7.72,41.44,9.99,4.64.75,7.79,5.12,7.04,9.75-.75,4.64-5.11,7.78-9.75,7.03-14.91-2.41-29.71-5.98-43.97-10.6-2.14-.69-3.82-2.16-4.83-3.99-1.09-1.98-1.39-4.39-.64-6.72ZM1965.48,1644.75c.03-4.69,3.87-8.47,8.57-8.44,14.2.11,28.5-.9,42.52-2.98,4.65-.69,8.98,2.53,9.66,7.16.69,4.64-2.51,8.97-7.16,9.66-14.88,2.21-30.06,3.28-45.14,3.17-3.19-.02-5.95-1.8-7.39-4.41-.68-1.23-1.06-2.65-1.05-4.15Z" style="fill: #fff;"/>
              <path d="M2053.46,1635.94c1.91,3.47,6.06,5.24,9.99,4.01,6.95-2.18,13.89-4.64,20.62-7.33,4.37-1.74,6.49-6.68,4.76-11.04-1.7-4.37-6.68-6.5-11.04-4.76-6.35,2.53-12.88,4.85-19.42,6.89-4.48,1.41-6.97,6.18-5.57,10.66.18.55.4,1.07.67,1.56Z" style="fill: #fff;"/>
            </g>
            <g>
              <path d="M2227.58,1482.63c.85,1.54,2.18,2.84,3.91,3.63,4.27,1.96,9.32.08,11.27-4.19,3.02-6.59,5.83-13.39,8.36-20.23,1.62-4.4-.61-9.29-5.02-10.92-4.4-1.63-9.29.62-10.92,5.02-2.38,6.44-5.03,12.85-7.87,19.05-1.16,2.54-.97,5.36.28,7.64Z" style="fill: #fff;"/>
              <path d="M1911.62,1081.59c-.92-4.6,2.07-9.08,6.67-10,14.51-2.9,29.38-4.7,44.18-5.36,4.69-.21,8.66,3.42,8.87,8.12.21,4.69-3.43,8.66-8.12,8.87-13.94.62-27.94,2.31-41.61,5.04-3.73.75-7.38-1.07-9.12-4.24-.41-.74-.71-1.56-.88-2.44ZM1997.59,1075.19c.5-4.67,4.69-8.05,9.36-7.55,5.2.55,10.41,1.26,15.63,2.1,9.44,1.52,18.9,3.52,28.12,5.94,4.54,1.19,7.26,5.85,6.06,10.38-1.19,4.54-5.84,7.25-10.38,6.06-8.69-2.28-17.61-4.16-26.51-5.6-4.92-.79-9.83-1.45-14.73-1.98-2.87-.31-5.25-2.01-6.55-4.36-.81-1.47-1.19-3.2-1-4.99ZM2246.69,1415.6c.81-3.92,1.53-7.88,2.18-11.87,1.59-9.83,2.66-19.83,3.19-29.73.25-4.69,4.26-8.28,8.95-8.03,4.69.26,8.28,4.26,8.03,8.95-.57,10.5-1.7,21.11-3.38,31.52-.69,4.24-1.46,8.44-2.32,12.6-.95,4.6-5.45,7.56-10.05,6.61-2.54-.52-4.57-2.13-5.73-4.23-.94-1.71-1.3-3.75-.87-5.81ZM2081.57,1094.63c1.87-4.31,6.87-6.29,11.18-4.42,13.58,5.89,26.82,12.87,39.35,20.76,3.98,2.49,5.17,7.75,2.66,11.72-2.5,3.98-7.75,5.16-11.72,2.66-11.79-7.42-24.26-14-37.05-19.54-1.8-.78-3.19-2.1-4.07-3.7-1.22-2.22-1.44-4.97-.35-7.48ZM2251.11,1332.09c-1.38-13.87-3.84-27.76-7.32-41.27-1.17-4.55,1.57-9.18,6.11-10.35,4.54-1.17,9.2,1.58,10.35,6.11,3.69,14.35,6.31,29.09,7.77,43.83.46,4.67-2.95,8.83-7.62,9.3-3.49.35-6.7-1.47-8.29-4.37-.54-.97-.89-2.08-1-3.26ZM2155.85,1138.32c3.08-3.55,8.45-3.93,11.99-.86,11.18,9.68,21.72,20.31,31.33,31.58,3.07,3.57,2.62,8.94-.95,11.99-3.57,3.05-8.94,2.62-11.99-.95-9.06-10.63-18.99-20.64-29.52-29.76-.78-.68-1.42-1.47-1.89-2.33-1.66-3.03-1.37-6.9,1.03-9.66ZM2230.29,1251.14c-5.46-12.8-11.99-25.33-19.34-37.2-2.47-4.07-1.24-9.23,2.75-11.7,3.99-2.47,9.23-1.24,11.7,2.75,7.8,12.6,14.73,25.9,20.53,39.48,1.84,4.32-.16,9.32-4.48,11.16-4.06,1.73-8.71.07-10.79-3.72-.13-.24-.26-.5-.37-.76Z" style="fill: #fff;"/>
              <path d="M1851,1103.81c2.12,3.85,6.88,5.48,10.95,3.64,6.21-2.81,12.63-5.43,19.08-7.79,4.41-1.61,6.68-6.49,5.06-10.9-1.6-4.36-6.49-6.68-10.9-5.06-6.85,2.5-13.66,5.28-20.25,8.27-4.28,1.94-6.18,6.98-4.24,11.25.09.2.19.41.3.6Z" style="fill: #fff;"/>
            </g>
          </g>
          <path d="M2047.55,1252.15c-32.03-33.41-66.71-50.43-103.08-50.59-24.57-.11-48.55,7.74-69.39,20.49-11.72,7.17-40.9,23.17-18.88,36.47,6.19,3.74,13.67,4.44,20.86,5.23,76.96,8.45,166.79,43.81,200.82,119.33-8.11-17.99-36.67-37.78-51.63-50.28-18.43-15.4-38.45-28.78-59.88-39.63-25.51-12.9-53.82-20.16-82.37-21.39-24.66-1.06-59.87-3.57-69.01,24.03-13.34,40.28-10.21,84.28,20.13,115.92,43.62,45.5,131.72,59.59,196.22,50.01,25.46-3.78,75.03-9.32,89.62,19.57,1.17,2.31,2.09,4.83,3.93,6.66,5.48,5.45,14.92,1.38,15.31-6.08.27-5.15,5.55-127.33-92.64-229.73Z" style="fill: #fff;"/>
        </g>
        <path d="M1092.39,2533.86c-10.46-122.91,42.97-259.71,73.52-386.94,16.15-67.27,26-134.44,19.58-203.71-6.38-68.87-33.55-144.69.45-210.65,68.51-132.88,205.84-61.31,280.08,47.01,86.15,125.7,98.99,322.68,124.79,475.4,15.56,92.07,41.86,187.19,47.14,280.32,8.73,154.27-32.86,258.24-110.79,325.17-74.75,64.2-182.62,71.42-265.37,17.93-74.75-48.32-152.53-146.25-169.4-344.53Z" style="fill: #005000;"/>
        <path d="M1381.65,3124.98c-1.56.41-3.24.45-4.92.05-5.47-1.3-8.86-6.79-7.57-12.26,1.72-7.26,169.42-732.44-29.41-1335.34-1.76-5.34,1.14-11.1,6.49-12.86,5.24-1.76,11.1,1.14,12.86,6.49,200.67,608.46,31.62,1339.1,29.89,1346.42-.9,3.79-3.82,6.59-7.34,7.51Z" style="fill: #b2d24a;"/>
        <path d="M2691.83,1537.57s63.87,21.29,105.25,112.54c11.31,24.95,72.74,29.38,79.08,80.56,3.27,26.42,22.83,47.59,49.15,51.62,65.55,10.05,166.57,44.08,182.73,157.89,12.34,86.87-31.95,119.81-78.42,131.21-34.13,8.37-56.82,41.58-49.91,76.04,6.62,33.05-3.25,71.26-60.52,101.48-128.32,67.71-256.48-160.42-256.48-160.42l-26.26-398.33,55.39-152.6Z" style="fill: #42210b;"/>
        <path d="M2279.44,1525.21s159.86,252.85,349.94,301.68c0,0-37.04,105.49-65.63,117.57,0,0-233.86-195.13-293.96-383.32l9.64-35.93Z" style="fill: url(#linear-gradient-5);"/>
        <path d="M3044.17,3142.41l5.18,42.59c.98,8.08,7.34,14.47,15.43,15.39,13.65,1.56,35.56,3.16,57,.89,9.41-1,15.52-10.52,12.65-19.54-5.23-16.44-14.79-41.12-28.57-55.65h-47.25c-8.73,0-15.5,7.64-14.45,16.31Z"/>
        <path d="M2674.12,2643.48l-7.97,46.91s26.7,270.5,31.46,378.7c.74,16.96-3.64,33.73-12.55,48.19l-46.44,75.41,118.02-69.64,2.35-14.4-19.32-26.56,25.31-303.03c1.49-17.8-2.19-35.65-10.58-51.42l-24.41-45.86-55.86-38.29Z" style="fill: url(#linear-gradient-6);"/>
        <path d="M2630.84,3203.61h37.66c7.05,0,13.7-3.24,18-8.82,11.74-15.26,36.07-45.02,47.7-45.8,15.66-1.05,13.65,54.62,13.65,54.62h8.78l11.12-69.17c2.8-17.4-5.86-34.64-21.49-42.8h0s-3.58,26.47-22.99,38.18c-19.41,11.71-78.98,53.64-78.98,53.64,0,0-7.3-1.04-15.31.41-11.88,2.15-10.22,19.74,1.85,19.74Z"/>
        <path d="M2835.76,2665.76s156.45,296.76,181.32,364.52c24.87,67.76,33.58,124.28,33.91,129.63.52,8.36,10.92,16.38,39.6,16.38,14.8,0,22.05-5.93,25.59-11.67,3.03-4.9,3.18-11.03.63-16.19-9.05-18.31-37.77-76.84-48.41-103.39-12.7-31.69-40.01-175.33-55-225.27-14.98-49.94-31.92-104.11-97.15-154.01,0,0-44.78-43.86-80.5,0Z" style="fill: url(#linear-gradient-7);"/>
        <path d="M2736.93,2179.5c-40.36-171,61.88-267.72,61.88-267.72-64.51-61.92-182.04-90.1-182.04-90.1,0,0-112.15,81.99-98.85,146.17,7.8,37.61,78.83,225.3,78.83,225.3,0,0,65.68,31.09,140.18-13.66Z" style="fill: #f4e796;"/>
        <path d="M2826.4,2264.16c-16.42-49.48-89.47-84.66-89.47-84.66-74.49,44.74-140.18,13.66-140.18,13.66,0,0-14.73,56.3-4.56,108.63,10.17,52.32,73.95,388.61,73.95,388.61,100.51,20.36,255.08-20.49,255.08-20.49-64.02-113.66-78.4-356.27-94.82-405.74Z" style="fill: #333;"/>
        <path d="M2690.08,1708.67l32.81,147.38c3.14,12.98-8.69,10.86-21.82,8.38-21.49-4.05-49.2-12.4-58.46-29.12-.94-1.7-1.41-3.63-1.68-5.55l-14.1-102.2c-1.12-8.11,3.26-15.98,10.75-19.29l27.2-12.06c10.47-4.64,22.6,1.33,25.29,12.47Z" style="fill: url(#linear-gradient-8);"/>
        <g>
          <path d="M2627.24,1574.32s-34.93,23.64-49.94,83.86c-15.01,60.22,9.38,81.81,34.39,80.49,25-1.32,61.26-9.06,92.67-52.25,31.41-43.2-31.34-140.99-77.11-112.1Z" style="fill: url(#linear-gradient-9);"/>
          <path d="M2672.68,1662.13s12.8-86.28-58.84-73.09l-14.48,15.08s-35.06-39.49,3.74-69.34c38.8-29.85,92.65-22.2,122.44,32.14,29.79,54.34,40.6,92.53,15.63,126.3-24.97,33.77-43.75,4.81-43.75,4.81,0,0,11.45-29.23,1.95-41.77-9.5-12.54-21.76,7.29-21.76,7.29l-4.93-1.42Z" style="fill: #42210b;"/>
        </g>
        <g>
          <path d="M2280.54,1577.26c-.48,5.22,18.91,8.82,25.08-13.41-1.7-9.65-4.71-51.93-12.11-58.49-39.42-34.98-109.72-74.33-109.72-74.33-7.86,12,2.45,19.91,2.45,19.91l35.09,23.68c-3.66,12.12-9,22.84-9.61,36.68-.46,10.48,3.41,20.74,10.37,28.69,6.98,7.98,16.39,18.28,24.86,26.1,16.04,14.8,33.58,11.16,33.58,11.16Z" style="fill: url(#linear-gradient-10);"/>
          <path d="M2261.69,1559.93l4.92-2.02c-.71-1.74-17.54-42.61-25.65-51.09-3.14-3.28-4.66-6.11-4.52-8.41.08-1.31.74-2.59,1.99-3.89l28.62,15.3,12.57,19.69,4.49-2.86-13.32-20.87-33.06-17.68-1.37,1.12c-3.31,2.7-5.02,5.6-5.22,8.86-.24,3.89,1.72,7.95,5.98,12.41,6.16,6.44,19.83,37.86,24.57,49.43Z" style="fill: url(#linear-gradient-11);"/>
        </g>
        <path d="M2798.81,1911.78s181.64,372.94,247.42,405.54c0,0,66.79,6.98,107.66,19.34,10.28,3.11,9.94,17.71-.43,20.54-28.47,7.76-75.62,14.25-118.84-9.21,0,0,23.22,34.8,9.67,48.36,0,0-30.96-36.75-42.56-48.36-10.22-10.22-196.23-213.01-274.43-335.31-6.32-9.88-1.93-39.25,2.46-50.12,10.1-25.03,32.51-64.99,69.05-50.77Z" style="fill: url(#linear-gradient-12);"/>
        <path d="M2661.24,1542.34c15.38,5.05,29.12,14.27,41.59,24.46,12.51,10.26,23.36,22.45,32.52,35.72,9.14,13.29,16.5,27.8,21.61,43.07,2.56,7.64,4.58,15.41,6.07,23.35,1.52,7.95,2.8,16.09,5.26,24.11,2.39,7.97,6.31,15.93,12.35,22.08,5.92,6.23,13.17,10.72,20.42,14.63,7.28,3.9,14.69,7.28,21.65,11.21,6.99,3.86,13.35,8.57,19.03,14.1,11.38,11.04,19.59,25.12,23.75,40.46,2.21,7.71,3.9,15.76,6.82,23.68,2.84,7.87,7.42,15.72,14.21,21.25,6.69,5.63,14.73,9,22.74,11.33,8.05,2.3,16.19,3.66,24.21,5.05,15.99,2.55,31.54,6.73,46.37,12.98,29.39,12.41,56.34,33.22,70.78,61.88,7.17,14.2,10.57,30.35,8.51,46.12-2.14,15.65-9.03,31.03-20.79,41.73-5.83,5.33-12.75,9.53-20.35,11.72-7.62,2.15-15.77,2.43-23.62,1.11-15.67-2.45-30.69-12.48-36.59-27.6l-1.25.46c5.78,15.79,21.17,26.57,37.42,29.46,8.15,1.55,16.69,1.45,24.8-.66,8.13-2.16,15.59-6.47,21.87-11.98,12.65-11.15,20.03-27.27,22.49-43.71,2.39-16.61-1.04-33.77-8.36-48.69-7.29-15.01-18.04-28.14-30.67-38.86-12.62-10.78-27.02-19.29-42.19-25.81-15.19-6.48-31.3-10.87-47.48-13.51-8.03-1.42-15.98-2.79-23.6-5-7.58-2.23-14.86-5.38-20.67-10.32-5.87-4.87-9.9-11.52-12.61-18.91-2.77-7.37-4.48-15.3-6.78-23.24-4.43-16.09-13.25-31.13-25.33-42.73-6.01-5.82-12.88-10.85-20.17-14.83-7.25-4.05-14.7-7.4-21.79-11.17-7.07-3.77-13.86-7.99-19.22-13.6-5.48-5.48-9.09-12.5-11.48-20.05-2.42-7.55-3.79-15.53-5.42-23.55-1.61-8.05-3.8-16.06-6.51-23.83-5.43-15.57-13.13-30.3-22.63-43.73-9.63-13.32-20.93-25.47-33.85-35.59-12.88-10.05-26.93-19.06-42.72-23.87l-.39,1.27Z" style="fill: #754c24;"/>
        <path d="M2747.84,1653.95c.5,10.49,1.11,21.04,3.04,31.49,1.89,10.41,4.93,20.88,10.6,30.21,2.83,4.63,6.27,8.97,10.26,12.69,3.97,3.73,8.32,6.94,12.68,9.95,8.81,5.92,17.34,11.62,25.13,18.41,15.53,13.34,28.58,30,32.66,49.94,4.67,19.74,3.39,41.62,12.19,62.34,4.47,10.26,11.91,19.1,20.58,25.81,8.69,6.77,18.5,11.71,28.61,15.44,20.37,7.34,41.46,9.93,61.67,14.52,20.02,4.53,40.06,12.16,54.23,26.96,6.86,7.29,12.92,16.33,13.05,26.4.1,10.12-4.58,19.86-9.19,29.18l1.17.63c5.19-9.01,10.66-18.62,11.06-29.79.17-5.53-1.29-11.08-3.69-15.97-2.39-4.92-5.53-9.38-9.09-13.48-14.7-16.32-35.64-24.79-56.05-30.05-20.53-5.44-41.5-7.9-60.65-15.16-18.94-7.08-36.83-19.3-44.58-37.63-8.13-18.26-7.29-39.82-12.31-60.85-2.46-10.58-7.02-20.91-13.36-29.74-6.23-8.95-13.95-16.65-22.28-23.36-16.19-14.11-37.5-21.17-48.32-38.63-5.67-8.42-9.11-18.32-11.41-28.42-2.3-10.13-3.5-20.56-4.69-30.98l-1.33.1Z" style="fill: #8c6239;"/>
      </g>
    </g>
  </g>
</svg>