<?xml version="1.0" encoding="UTF-8"?>
<svg id="Camada_1" xmlns="http://www.w3.org/2000/svg" viewBox="0 0 98.78 131.56">
  <path d="M13.41,123.34c-1.16.08-2.01-.3-2.73-.83-.83-.62-1.63-1.27-2.34-1.97-1.61-1.59-2.85-3.36-3.98-5.19-.2-.32-.2-.63-.14-.96.61-3.02,1.67-5.92,3.37-8.68,3.93-6.4,9.04-12.13,15.5-17.09,6.41-4.92,13.36-9.31,20.69-13.34,8.04-4.42,16.11-8.81,24.11-13.29,4.51-2.53,8.5-5.54,12.14-8.84,2.08-1.88,3.9-3.9,5.42-6.1,2.83-4.08,4.31-8.43,4.21-13.11,0-.3,0-.6,0-.89-.07,0-.14,0-.2-.01-.05.27-.12.54-.16.81-.52,4.08-1.82,7.97-4.31,11.59-2.13,3.1-4.83,5.87-7.94,8.38-4.8,3.89-10.05,7.38-15.85,10.29-9.85,4.94-19.35,10.28-28.93,15.54-6.18,3.39-11.75,7.33-16.53,11.95-4.73,4.58-8.47,9.59-10.79,15.25-.79,1.93-1.37,3.9-1.83,6-.14-.18-.24-.28-.29-.39-1.26-2.74-2.09-5.57-2.49-8.47-1.26-9.13.89-17.81,5.46-26.17,1.93-3.53,4.32-6.86,7.16-9.98.31-.34.43-.68.43-1.1,0-8.42,0-16.84,0-25.27,0-7.78,0-15.57,0-23.35,0-1.81.6-3.48,2.02-4.94,1.99-2.05,4.67-3.01,7.88-3.05,3.36-.04,6.73-.01,10.1-.01.3,0,.6,0,1.03,0,0-.28,0-.51,0-.74,0-1.98-.01-3.97,0-5.95.01-1.63,1.21-2.89,3.1-3.29.4-.08.82-.11,1.24-.11C47.61.01,56.46.04,65.3,0c2.42-.01,4.42,1.53,4.35,3.46-.07,1.94-.02,3.88-.02,5.82,0,.24,0,.48,0,.79.34.01.64.04.93.04,3.53,0,7.06-.01,10.6,0,2.04.01,3.96.42,5.66,1.36,2.81,1.55,4.15,3.73,4.28,6.41.04.9,0,1.81,0,2.71,0,.22,0,.43,0,.69,1.61-.25,2.56.39,3.32,1.32.8.97,1.29,2.05,1.71,3.14.88,2.28,1.39,4.63,1.79,6.99.57,3.37.88,6.75.84,10.15-.03,2.85-.2,5.69-.89,8.49-.94,3.84-2.77,7.42-5.14,10.84-.41.6-.84,1.19-1.3,1.77-.25.31-.35.63-.35.99.01,3.11,0,6.22,0,9.33,0,16.38,0,32.76,0,49.14,0,1.88-.6,3.62-2.09,5.12-1.81,1.82-4.2,2.76-7.08,2.96-.33.02-.67.01-1,.01-19.13,0-38.27,0-57.4,0-2.23,0-4.29-.43-6.1-1.49-2.58-1.5-3.8-3.56-4.02-6.05-.02-.2,0-.39,0-.68ZM89.67,66.47c-.06,0-.12-.02-.17-.03-.15.16-.29.32-.44.47-1.48,1.51-2.9,3.07-4.47,4.53-5.27,4.91-11.37,9.11-17.96,12.88-7.68,4.38-15.92,7.97-24.51,11.1-3.51,1.28-7,2.6-10.44,3.99-3.01,1.21-5.8,2.7-8.27,4.54-3.84,2.86-6.45,6.27-7.26,10.45-.35,1.83-.55,3.68-.97,5.5-.31,1.36-.35,2.71-.32,4.08.03,1.76.85,3.27,2.4,4.51,1.71,1.38,3.83,1.98,6.25,1.98,9.09,0,18.19,0,27.28,0,10.04,0,20.08,0,30.12,0,1.18,0,2.33-.12,3.43-.46,3.04-.92,5.36-3.37,5.35-6.41-.04-18.83-.02-37.65-.02-56.48v-.64ZM14.85,65.68c.06.02.12.03.17.05.28-.24.56-.48.84-.72.3-.26.6-.52.91-.77,4.54-3.69,9.53-6.95,14.87-9.88,5.56-3.06,11.43-5.7,17.46-8.13,6.88-2.78,13.82-5.48,20.74-8.2,4.18-1.65,8.08-3.62,11.6-6.06,2.31-1.6,4.37-3.37,6.17-5.36,1.22-1.34,1.48-2.92,2.05-4.42.03-.08,0-.18,0-.26,0-1.39.02-2.78,0-4.17-.04-2.09-1.14-3.79-3.19-5.09-1.58-1-3.41-1.41-5.43-1.4-17.24.01-34.48,0-51.72,0-2.03,0-4.06,0-6.09,0-.98,0-1.93.12-2.86.38-3.34.94-5.53,3.53-5.52,6.31.03,15.72.01,31.43.01,47.15,0,.19,0,.39,0,.58Z"/>
</svg>