<?xml version="1.0" encoding="utf-8"?>
<!-- Generator: Adobe Illustrator 27.9.6, SVG Export Plug-In . SVG Version: 9.03 Build 54986)  -->
<svg version="1.1" id="Camada_1" xmlns="http://www.w3.org/2000/svg" xmlns:xlink="http://www.w3.org/1999/xlink" x="0px" y="0px"
	 viewBox="0 0 297.6 77.3" style="enable-background:new 0 0 297.6 77.3;" xml:space="preserve">
<style type="text/css">
	.st0{fill:none;}
	.st1{fill:#FFFFFF;}
</style>
<g>
	<rect x="2.1" y="9.6" class="st0" width="295.1" height="71.1"/>
	<path class="st1" d="M11.6,61.4V11h14.1c9,0,15.9,2.2,20.5,6.7c4.6,4.5,6.9,10.6,6.9,18.4c0,16.9-9.1,25.3-27.4,25.3H11.6z
		 M25.7,19.4h-4.8v33.6h4.8c6.2,0,10.6-1.4,13.3-4.3c2.7-2.9,4-7.1,4-12.7c0-5.1-1.4-9.1-4.1-12.1C36.1,20.9,31.7,19.4,25.7,19.4z"
		/>
	<path class="st1" d="M59,43.3c0-5.7,1.6-10.3,4.7-13.6c3.1-3.4,7.5-5.1,13-5.1c5.4,0,9.7,1.7,12.7,5.1c3,3.4,4.6,7.9,4.6,13.6v3
		H68.5c0.4,2.7,1.5,4.9,3.1,6.5c1.7,1.6,3.9,2.4,6.6,2.4c4,0,7.2-1,9.5-3l4.4,5c-3.4,3.4-8.3,5.1-14.8,5.1c-5.7,0-10.1-1.6-13.4-4.9
		C60.6,54.1,59,49.4,59,43.3z M76.7,31.3c-4.7,0-7.5,2.9-8.3,8.6h16.5C84.2,34.2,81.4,31.3,76.7,31.3z"/>
	<path class="st1" d="M109.2,34.8c0,1,0.5,1.8,1.4,2.4c1,0.6,2.2,1.1,3.6,1.3c1.4,0.3,3,0.6,4.6,1.2c1.7,0.5,3.2,1.1,4.6,1.8
		c1.4,0.7,2.6,1.8,3.6,3.4c1,1.6,1.4,3.5,1.4,5.8c0,7.7-5.3,11.6-15.8,11.6c-6.2,0-10.9-0.9-14.3-2.6l2-6.5
		c3.4,1.5,7.1,2.3,11.2,2.3c5.1,0,7.7-1.4,7.7-4.1c0-1.2-0.7-2.1-2-2.8c-1.3-0.7-3-1.2-4.9-1.7c-1.9-0.4-3.8-0.9-5.7-1.6
		c-1.9-0.6-3.5-1.8-4.9-3.4c-1.3-1.6-2-3.7-2-6.3c0-3.9,1.4-6.7,4.1-8.5c2.7-1.8,6.4-2.6,10.9-2.6c5.1,0,9.3,0.9,12.7,2.8l-3,6
		c-3.2-1.3-6.4-2-9.6-2C111.2,31.3,109.2,32.5,109.2,34.8z"/>
	<path class="st1" d="M155.4,24.6c4.5,0,8.1,1.8,10.8,5.3c2.7,3.5,4.1,8,4.1,13.4c0,5.4-1.4,9.9-4.1,13.6c-2.7,3.6-6.3,5.4-10.8,5.4
		c-4,0-7.5-1.4-10.4-4.3v18.6h-9.1v-51h7.6L145,29v0.9C147.6,26.3,151,24.6,155.4,24.6z M158.8,50.9c1.5-2,2.2-4.6,2.2-7.6
		c0-3-0.7-5.5-2.2-7.5c-1.5-1.9-3.5-2.9-5.9-2.9c-2.5,0-4.6,1-6,3c-1.5,2-2.2,4.4-2.2,7.4c0,3.2,0.8,5.7,2.4,7.7c1.6,2,3.6,3,6,3
		C155.5,53.9,157.4,52.9,158.8,50.9z"/>
	<path class="st1" d="M178.5,17.6c-1.1-1-1.7-2.3-1.7-3.7c0-1.4,0.6-2.7,1.7-3.7c1.1-1,2.4-1.5,3.9-1.5c1.5,0,2.8,0.5,3.9,1.5
		c1.1,1,1.7,2.3,1.7,3.7c0,1.4-0.6,2.7-1.7,3.7c-1.1,1-2.4,1.5-3.9,1.5C180.9,19.2,179.6,18.6,178.5,17.6z M186.9,61.4h-9.1v-36h9.1
		V61.4z"/>
	<path class="st1" d="M196.1,48.9V9.6h9.1v39.8c0,3,1.1,4.5,3.3,4.5c1.1,0,2,0,2.7-0.1l0.5,7.7c-2.1,0.5-4,0.7-5.8,0.7
		C199.3,62.1,196.1,57.7,196.1,48.9z"/>
	<path class="st1" d="M217.1,9.6h9.1V30c2.9-3.6,6.4-5.4,10.4-5.4c4.1,0,7.3,1.4,9.5,4.2c2.2,2.8,3.3,6.8,3.3,12v20.7h-9.1V41.2
		c0-2.8-0.6-4.9-1.8-6.3c-1.2-1.4-2.7-2.1-4.6-2.1c-2.3,0-4.1,0.8-5.5,2.3c-1.4,1.5-2.2,3.6-2.2,6.3v20h-9.1V9.6z"/>
	<path class="st1" d="M256.4,43.3c0-5.7,1.6-10.3,4.7-13.6c3.1-3.4,7.5-5.1,13-5.1c5.4,0,9.7,1.7,12.7,5.1c3,3.4,4.6,7.9,4.6,13.6v3
		h-25.5c0.4,2.7,1.5,4.9,3.1,6.5c1.7,1.6,3.9,2.4,6.6,2.4c4,0,7.2-1,9.5-3l4.4,5c-3.4,3.4-8.3,5.1-14.8,5.1
		c-5.7,0-10.1-1.6-13.4-4.9C258.1,54.1,256.4,49.4,256.4,43.3z M274.1,31.3c-4.7,0-7.5,2.9-8.3,8.6h16.5
		C281.6,34.2,278.8,31.3,274.1,31.3z"/>
</g>
</svg>
