<?xml version="1.0" encoding="UTF-8"?>
<svg id="Camada_1" xmlns="http://www.w3.org/2000/svg" viewBox="0 0 105.89 136.39">
  <path d="M86.25,136.39H25.64c-.13-.02-.25-.05-.38-.06-3.97-.24-7.08-2.79-8.06-6.63-.02-.09-.07-.17-.11-.28-1.06.86-2.2.94-3.43.56-1.21-.37-2.2-1.09-3.14-1.89-2.17-1.85-3.87-4.11-5.34-6.54C.88,114.44-.58,106.69.2,98.49c.5-5.23,1.89-10.24,3.97-15.05,1.7-3.95,3.85-7.65,6.4-11.12,1.81-2.45,3.72-4.82,5.98-6.87.28-.25.4-.5.4-.89-.01-15.77,0-31.53-.01-47.3,0-1.13.18-2.22.58-3.27,1.33-3.43,4.51-5.57,8.34-5.58,3.67,0,7.33,0,11,0,.17,0,.33,0,.52,0,0-1.32,0-2.56,0-3.81,0-2.77,1.83-4.59,4.61-4.6,5.56,0,11.13,0,16.69,0,3.67,0,7.33,0,11,0,2.22,0,4,1.49,4.32,3.68.13.91.06,1.85.07,2.78,0,.63,0,1.27,0,1.94h.56c3.65,0,7.3,0,10.95,0,.51,0,1.01.02,1.52.06,3.93.31,7.34,3.61,7.75,7.54.08.72.08,1.46.12,2.13.61-.15,1.2-.37,1.81-.43,1.84-.17,3.24.65,4.33,2.07,1.25,1.63,1.97,3.5,2.51,5.45,1.99,7.18,2.68,14.47,2.03,21.9-.35,4.03-1.42,7.85-3.19,11.48-1.88,3.85-4.32,7.33-7.11,10.57-.29.34-.42.67-.42,1.12.01,16.42.01,32.84,0,49.26,0,2.75.02,5.51,0,8.26-.04,4.02-2.9,7.49-6.84,8.33-.61.13-1.23.17-1.84.25ZM104.42,42.71c0-4.86-.4-8.85-1.15-12.8-.45-2.36-1.02-4.7-1.98-6.91-.5-1.15-1.09-2.24-2.05-3.09-.79-.7-1.7-.9-2.71-.71-1.13.22-1.89,1.08-2.1,2.43-.13.86-.43,1.64-.97,2.29-1.01,1.21-2.01,2.44-3.16,3.51-3.34,3.14-7.16,5.61-11.3,7.54-3.63,1.69-7.35,3.2-11.06,4.7-7.45,3.03-14.94,5.97-22.25,9.32-7.77,3.56-15.24,7.63-22.14,12.71-2.6,1.92-5.2,3.86-7.42,6.22-4.97,5.28-8.79,11.3-11.41,18.07-2.7,6.99-3.9,14.19-2.9,21.68.76,5.7,2.81,10.91,6.25,15.54,1.15,1.55,2.41,3.01,3.95,4.2.72.56,1.49,1.06,2.4,1.27.94.22,1.62-.06,2.08-.91.23-.44.44-.92.54-1.41.35-1.85.65-3.71.97-5.56.33-1.92.72-3.81,1.61-5.56,1.73-3.41,4.32-6.03,7.44-8.16,3.63-2.49,7.64-4.23,11.72-5.82,4.19-1.63,8.4-3.2,12.58-4.86,6.64-2.64,13.05-5.75,19.22-9.34,6.44-3.76,12.54-8,18.05-13.05,3.87-3.55,7.36-7.43,10.19-11.87,2.11-3.32,3.81-6.83,4.71-10.67.74-3.15.9-6.36.92-8.75Z" style="fill: #fff;"/>
  <path d="M9.34,119.77c-.25-1.2-.53-2.39-.73-3.59-.93-5.76.27-11.17,2.72-16.37,2.68-5.69,6.43-10.61,10.88-15.01,5.1-5.05,10.88-9.19,17.12-12.71,9.03-5.09,18.04-10.22,27.17-15.1,5.61-3,11.06-6.2,16.16-9.99,3.5-2.6,6.75-5.47,9.53-8.85,3.47-4.23,5.68-9.01,6.41-14.45.08-.6.18-1.19.27-1.79.04,0,.09,0,.13,0,.03.33.09.65.1.98.08,3.99-.83,7.75-2.66,11.29-1.85,3.6-4.38,6.68-7.32,9.42-4.7,4.38-9.91,8.02-15.51,11.17-9.32,5.23-18.6,10.51-27.82,15.91-7.19,4.21-13.93,9.07-20.24,14.52-3.75,3.24-7.2,6.76-9.96,10.91-3.44,5.17-5.51,10.85-6.03,17.05-.16,1.94-.08,3.91-.11,5.86,0,.25,0,.49,0,.74-.04.01-.08.02-.11.04Z" style="fill: #fff;"/>
</svg>